<?xml version="1.0" encoding="UTF-8" standalone="no"?>
<!DOCTYPE svg PUBLIC "-//W3C//DTD SVG 1.1//EN"
 "http://www.w3.org/Graphics/SVG/1.1/DTD/svg11.dtd">
<!-- Generated by graphviz version 2.47.0 (20210316.0004)
 -->
<!-- Title: dependencies Pages: 1 -->
<svg width="522pt" height="211pt"
 viewBox="0.00 0.00 522.00 211.00" xmlns="http://www.w3.org/2000/svg" xmlns:xlink="http://www.w3.org/1999/xlink">
<g id="graph0" class="graph" transform="scale(1 1) rotate(0) translate(4 207)">
<title>dependencies</title>
<polygon fill="white" stroke="transparent" points="-4,4 -4,-207 518,-207 518,4 -4,4"/>
<text text-anchor="start" x="236.01" y="-42.4" font-family="Times-12" font-weight="bold" font-size="14.00">Legend</text>
<polygon fill="#ffffb3" stroke="transparent" points="23,-10 23,-30 43,-30 43,-10 23,-10"/>
<text text-anchor="start" x="46.63" y="-15.4" font-family="Times-12" font-size="14.00"> &#160;Declarations</text>
<polygon fill="#8dd3c7" stroke="transparent" points="136,-10 136,-30 156,-30 156,-10 136,-10"/>
<text text-anchor="start" x="159.73" y="-15.4" font-family="Times-12" font-size="14.00"> &#160;Module</text>
<polygon fill="#80b1d3" stroke="transparent" points="222,-10 222,-30 242,-30 242,-10 222,-10"/>
<text text-anchor="start" x="245.78" y="-15.4" font-family="Times-12" font-size="14.00"> &#160;Bootstrap</text>
<polygon fill="#fdb462" stroke="transparent" points="319,-10 319,-30 339,-30 339,-10 319,-10"/>
<text text-anchor="start" x="342.67" y="-15.4" font-family="Times-12" font-size="14.00"> &#160;Providers</text>
<polygon fill="#fb8072" stroke="transparent" points="415,-10 415,-30 435,-30 435,-10 415,-10"/>
<text text-anchor="start" x="438.73" y="-15.4" font-family="Times-12" font-size="14.00"> &#160;Exports</text>
<g id="clust1" class="cluster">
<title>cluster_SetupModule</title>
<polygon fill="none" stroke="black" stroke-dasharray="1,5" points="8,-70 8,-195 506,-195 506,-70 8,-70"/>
</g>
<g id="clust3" class="cluster">
<title>cluster_SetupModule_imports</title>
<polygon fill="none" stroke="black" points="16,-78 16,-130 498,-130 498,-78 16,-78"/>
</g>
<!-- ConfigModule -->
<g id="node1" class="node">
<title>ConfigModule</title>
<polygon fill="#8dd3c7" stroke="black" points="490.44,-122 487.44,-126 466.44,-126 463.44,-122 391.56,-122 391.56,-86 490.44,-86 490.44,-122"/>
<text text-anchor="middle" x="441" y="-99.8" font-family="Times,serif" font-size="14.00">ConfigModule</text>
</g>
<!-- SetupModule -->
<g id="node5" class="node">
<title>SetupModule</title>
<polygon fill="#8dd3c7" stroke="black" points="300.94,-187 297.94,-191 276.94,-191 273.94,-187 209.06,-187 209.06,-151 300.94,-151 300.94,-187"/>
<text text-anchor="middle" x="255" y="-164.8" font-family="Times,serif" font-size="14.00">SetupModule</text>
</g>
<!-- ConfigModule&#45;&gt;SetupModule -->
<g id="edge1" class="edge">
<title>ConfigModule&#45;&gt;SetupModule</title>
<path fill="none" stroke="black" d="M441,-122.11C441,-141.34 441,-169 441,-169 441,-169 310.98,-169 310.98,-169"/>
<polygon fill="black" stroke="black" points="310.98,-165.5 300.98,-169 310.98,-172.5 310.98,-165.5"/>
</g>
<!-- DatabaseModule -->
<g id="node2" class="node">
<title>DatabaseModule</title>
<polygon fill="#8dd3c7" stroke="black" points="373.35,-122 370.35,-126 349.35,-126 346.35,-122 262.65,-122 262.65,-86 373.35,-86 373.35,-122"/>
<text text-anchor="middle" x="318" y="-99.8" font-family="Times,serif" font-size="14.00">DatabaseModule</text>
</g>
<!-- DatabaseModule&#45;&gt;SetupModule -->
<g id="edge2" class="edge">
<title>DatabaseModule&#45;&gt;SetupModule</title>
<path fill="none" stroke="black" d="M281.65,-122.11C281.65,-122.11 281.65,-140.99 281.65,-140.99"/>
<polygon fill="black" stroke="black" points="278.15,-140.99 281.65,-150.99 285.15,-140.99 278.15,-140.99"/>
</g>
<!-- RequestModule -->
<g id="node3" class="node">
<title>RequestModule</title>
<polygon fill="#8dd3c7" stroke="black" points="244.15,-122 241.15,-126 220.15,-126 217.15,-122 139.85,-122 139.85,-86 244.15,-86 244.15,-122"/>
<text text-anchor="middle" x="192" y="-99.8" font-family="Times,serif" font-size="14.00">RequestModule</text>
</g>
<!-- RequestModule&#45;&gt;SetupModule -->
<g id="edge3" class="edge">
<title>RequestModule&#45;&gt;SetupModule</title>
<path fill="none" stroke="black" d="M226.8,-122.11C226.8,-122.11 226.8,-140.99 226.8,-140.99"/>
<polygon fill="black" stroke="black" points="223.3,-140.99 226.8,-150.99 230.3,-140.99 223.3,-140.99"/>
</g>
<!-- SeederModule -->
<g id="node4" class="node">
<title>SeederModule</title>
<polygon fill="#8dd3c7" stroke="black" points="121.64,-122 118.64,-126 97.64,-126 94.64,-122 24.36,-122 24.36,-86 121.64,-86 121.64,-122"/>
<text text-anchor="middle" x="73" y="-99.8" font-family="Times,serif" font-size="14.00">SeederModule</text>
</g>
<!-- SeederModule&#45;&gt;SetupModule -->
<g id="edge4" class="edge">
<title>SeederModule&#45;&gt;SetupModule</title>
<path fill="none" stroke="black" d="M73,-122.11C73,-141.34 73,-169 73,-169 73,-169 199.07,-169 199.07,-169"/>
<polygon fill="black" stroke="black" points="199.07,-172.5 209.07,-169 199.07,-165.5 199.07,-172.5"/>
</g>
</g>
</svg>
