<?xml version="1.0" encoding="UTF-8" standalone="no"?>
<!DOCTYPE svg PUBLIC "-//W3C//DTD SVG 1.1//EN"
 "http://www.w3.org/Graphics/SVG/1.1/DTD/svg11.dtd">
<!-- Generated by graphviz version 2.47.0 (20210316.0004)
 -->
<!-- Title: dependencies Pages: 1 -->
<svg width="1657pt" height="420pt"
 viewBox="0.00 0.00 1657.00 420.00" xmlns="http://www.w3.org/2000/svg" xmlns:xlink="http://www.w3.org/1999/xlink">
<g id="graph0" class="graph" transform="scale(1 1) rotate(0) translate(4 416)">
<title>dependencies</title>
<polygon fill="white" stroke="transparent" points="-4,4 -4,-416 1653,-416 1653,4 -4,4"/>
<text text-anchor="start" x="803.51" y="-42.4" font-family="Times-12" font-weight="bold" font-size="14.00">Legend</text>
<polygon fill="#ffffb3" stroke="transparent" points="590.5,-10 590.5,-30 610.5,-30 610.5,-10 590.5,-10"/>
<text text-anchor="start" x="614.13" y="-15.4" font-family="Times-12" font-size="14.00"> &#160;Declarations</text>
<polygon fill="#8dd3c7" stroke="transparent" points="703.5,-10 703.5,-30 723.5,-30 723.5,-10 703.5,-10"/>
<text text-anchor="start" x="727.23" y="-15.4" font-family="Times-12" font-size="14.00"> &#160;Module</text>
<polygon fill="#80b1d3" stroke="transparent" points="789.5,-10 789.5,-30 809.5,-30 809.5,-10 789.5,-10"/>
<text text-anchor="start" x="813.28" y="-15.4" font-family="Times-12" font-size="14.00"> &#160;Bootstrap</text>
<polygon fill="#fdb462" stroke="transparent" points="886.5,-10 886.5,-30 906.5,-30 906.5,-10 886.5,-10"/>
<text text-anchor="start" x="910.17" y="-15.4" font-family="Times-12" font-size="14.00"> &#160;Providers</text>
<polygon fill="#fb8072" stroke="transparent" points="982.5,-10 982.5,-30 1002.5,-30 1002.5,-10 982.5,-10"/>
<text text-anchor="start" x="1006.23" y="-15.4" font-family="Times-12" font-size="14.00"> &#160;Exports</text>
<g id="clust1" class="cluster">
<title>cluster_ActivityModule</title>
<polygon fill="none" stroke="black" stroke-dasharray="1,5" points="8,-70 8,-282 184,-282 184,-70 8,-70"/>
</g>
<g id="clust4" class="cluster">
<title>cluster_ActivityModule_exports</title>
<polygon fill="none" stroke="black" points="52,-222 52,-274 176,-274 176,-222 52,-222"/>
</g>
<g id="clust6" class="cluster">
<title>cluster_ActivityModule_providers</title>
<polygon fill="none" stroke="black" points="16,-78 16,-130 176,-130 176,-78 16,-78"/>
</g>
<g id="clust7" class="cluster">
<title>cluster_AppModule</title>
<polygon fill="none" stroke="black" stroke-dasharray="1,5" points="192,-214 192,-404 567,-404 567,-214 192,-214"/>
</g>
<g id="clust9" class="cluster">
<title>cluster_AppModule_imports</title>
<polygon fill="none" stroke="black" points="200,-222 200,-339 559,-339 559,-222 200,-222"/>
</g>
<g id="clust25" class="cluster">
<title>cluster_DictionaryModule</title>
<polygon fill="none" stroke="black" stroke-dasharray="1,5" points="459,-138 459,-206 799,-206 799,-138 459,-138"/>
</g>
<g id="clust28" class="cluster">
<title>cluster_DictionaryModule_exports</title>
<polygon fill="none" stroke="black" points="653,-146 653,-198 791,-198 791,-146 653,-146"/>
</g>
<g id="clust30" class="cluster">
<title>cluster_DictionaryModule_providers</title>
<polygon fill="none" stroke="black" points="467,-146 467,-198 645,-198 645,-146 467,-146"/>
</g>
<g id="clust37" class="cluster">
<title>cluster_RequestModule</title>
<polygon fill="none" stroke="black" stroke-dasharray="1,5" points="807,-146 807,-282 945,-282 945,-146 807,-146"/>
</g>
<g id="clust40" class="cluster">
<title>cluster_RequestModule_exports</title>
<polygon fill="none" stroke="black" points="815,-222 815,-274 937,-274 937,-222 815,-222"/>
</g>
<g id="clust49" class="cluster">
<title>cluster_SeederModule</title>
<polygon fill="none" stroke="black" stroke-dasharray="1,5" points="1161,-70 1161,-282 1641,-282 1641,-70 1161,-70"/>
</g>
<g id="clust52" class="cluster">
<title>cluster_SeederModule_exports</title>
<polygon fill="none" stroke="black" points="1185,-222 1185,-274 1301,-274 1301,-222 1185,-222"/>
</g>
<g id="clust54" class="cluster">
<title>cluster_SeederModule_providers</title>
<polygon fill="none" stroke="black" points="1169,-78 1169,-130 1633,-130 1633,-78 1169,-78"/>
</g>
<g id="clust55" class="cluster">
<title>cluster_SetupModule</title>
<polygon fill="none" stroke="black" stroke-dasharray="1,5" points="192,-138 192,-206 451,-206 451,-138 192,-138"/>
</g>
<g id="clust57" class="cluster">
<title>cluster_SetupModule_imports</title>
<polygon fill="none" stroke="black" points="200,-146 200,-198 443,-198 443,-146 200,-146"/>
</g>
<g id="clust61" class="cluster">
<title>cluster_TranslationModule</title>
<polygon fill="none" stroke="black" stroke-dasharray="1,5" points="953,-214 953,-282 1153,-282 1153,-214 953,-214"/>
</g>
<g id="clust66" class="cluster">
<title>cluster_TranslationModule_providers</title>
<polygon fill="none" stroke="black" points="961,-222 961,-274 1145,-274 1145,-222 961,-222"/>
</g>
<!-- ActivityService  -->
<g id="node1" class="node">
<title>ActivityService </title>
<polygon fill="#fb8072" stroke="black" points="167.86,-266 60.14,-266 60.14,-230 167.86,-230 167.86,-266"/>
<text text-anchor="middle" x="114" y="-243.8" font-family="Times,serif" font-size="14.00">ActivityService </text>
</g>
<!-- ActivityModule -->
<g id="node2" class="node">
<title>ActivityModule</title>
<polygon fill="#8dd3c7" stroke="black" points="134.93,-190 131.93,-194 110.93,-194 107.93,-190 29.07,-190 29.07,-154 134.93,-154 134.93,-190"/>
<text text-anchor="middle" x="82" y="-167.8" font-family="Times,serif" font-size="14.00">ActivityModule</text>
</g>
<!-- ActivityModule&#45;&gt;ActivityService  -->
<g id="edge1" class="edge">
<title>ActivityModule&#45;&gt;ActivityService </title>
<path fill="none" stroke="black" stroke-dasharray="5,2" d="M85.12,-190.01C85.12,-190.01 85.12,-219.85 85.12,-219.85"/>
<polygon fill="black" stroke="black" points="81.62,-219.85 85.12,-229.85 88.62,-219.85 81.62,-219.85"/>
</g>
<!-- DictionaryModule -->
<g id="node4" class="node">
<title>DictionaryModule</title>
<polygon fill="#8dd3c7" stroke="black" points="327.92,-266 324.92,-270 303.92,-270 300.92,-266 208.08,-266 208.08,-230 327.92,-230 327.92,-266"/>
<text text-anchor="middle" x="268" y="-243.8" font-family="Times,serif" font-size="14.00">DictionaryModule</text>
</g>
<!-- ActivityModule&#45;&gt;DictionaryModule -->
<g id="edge9" class="edge">
<title>ActivityModule&#45;&gt;DictionaryModule</title>
<path fill="none" stroke="black" d="M134.81,-172C161.22,-172 187.63,-172 187.63,-172 187.63,-172 187.63,-248 187.63,-248 187.63,-248 197.91,-248 197.91,-248"/>
<polygon fill="black" stroke="black" points="197.91,-251.5 207.91,-248 197.91,-244.5 197.91,-251.5"/>
</g>
<!-- SearchModule -->
<g id="node6" class="node">
<title>SearchModule</title>
<polygon fill="#8dd3c7" stroke="black" points="305.64,-331 302.64,-335 281.64,-335 278.64,-331 208.36,-331 208.36,-295 305.64,-295 305.64,-331"/>
<text text-anchor="middle" x="257" y="-308.8" font-family="Times,serif" font-size="14.00">SearchModule</text>
</g>
<!-- ActivityModule&#45;&gt;SearchModule -->
<g id="edge13" class="edge">
<title>ActivityModule&#45;&gt;SearchModule</title>
<path fill="none" stroke="black" d="M49.97,-190.14C49.97,-228.23 49.97,-313 49.97,-313 49.97,-313 198.2,-313 198.2,-313"/>
<polygon fill="black" stroke="black" points="198.2,-316.5 208.2,-313 198.2,-309.5 198.2,-316.5"/>
</g>
<!-- TranslationModule -->
<g id="node8" class="node">
<title>TranslationModule</title>
<polygon fill="#8dd3c7" stroke="black" points="446.81,-331 443.81,-335 422.81,-335 419.81,-331 323.19,-331 323.19,-295 446.81,-295 446.81,-331"/>
<text text-anchor="middle" x="385" y="-308.8" font-family="Times,serif" font-size="14.00">TranslationModule</text>
</g>
<!-- ActivityModule&#45;&gt;TranslationModule -->
<g id="edge22" class="edge">
<title>ActivityModule&#45;&gt;TranslationModule</title>
<path fill="none" stroke="black" d="M109.92,-190.17C109.92,-194.05 109.92,-197 109.92,-197 109.92,-197 332.25,-197 332.25,-197 332.25,-197 332.25,-284.88 332.25,-284.88"/>
<polygon fill="black" stroke="black" points="328.75,-284.87 332.25,-294.88 335.75,-284.88 328.75,-284.87"/>
</g>
<!-- AppModule -->
<g id="node9" class="node">
<title>AppModule</title>
<polygon fill="#8dd3c7" stroke="black" points="466.66,-396 463.66,-400 442.66,-400 439.66,-396 383.34,-396 383.34,-360 466.66,-360 466.66,-396"/>
<text text-anchor="middle" x="425" y="-373.8" font-family="Times,serif" font-size="14.00">AppModule</text>
</g>
<!-- ActivityModule&#45;&gt;AppModule -->
<g id="edge3" class="edge">
<title>ActivityModule&#45;&gt;AppModule</title>
<path fill="none" stroke="black" d="M39.63,-190.33C39.63,-242.32 39.63,-387 39.63,-387 39.63,-387 373.02,-387 373.02,-387"/>
<polygon fill="black" stroke="black" points="373.02,-390.5 383.02,-387 373.02,-383.5 373.02,-390.5"/>
</g>
<!-- ActivityService -->
<g id="node3" class="node">
<title>ActivityService</title>
<ellipse fill="#fdb462" stroke="black" cx="96" cy="-104" rx="71.78" ry="18"/>
<text text-anchor="middle" x="96" y="-99.8" font-family="Times,serif" font-size="14.00">ActivityService</text>
</g>
<!-- ActivityService&#45;&gt;ActivityModule -->
<g id="edge2" class="edge">
<title>ActivityService&#45;&gt;ActivityModule</title>
<path fill="none" stroke="black" d="M82,-121.87C82,-121.87 82,-143.54 82,-143.54"/>
<polygon fill="black" stroke="black" points="78.5,-143.54 82,-153.54 85.5,-143.54 78.5,-143.54"/>
</g>
<!-- DictionaryModule&#45;&gt;SearchModule -->
<g id="edge14" class="edge">
<title>DictionaryModule&#45;&gt;SearchModule</title>
<path fill="none" stroke="black" d="M257.05,-266.11C257.05,-266.11 257.05,-284.99 257.05,-284.99"/>
<polygon fill="black" stroke="black" points="253.55,-284.99 257.05,-294.99 260.55,-284.99 253.55,-284.99"/>
</g>
<!-- DictionaryModule&#45;&gt;TranslationModule -->
<g id="edge23" class="edge">
<title>DictionaryModule&#45;&gt;TranslationModule</title>
<path fill="none" stroke="black" d="M327.91,-242C329.24,-242 329.98,-242 329.98,-242 329.98,-242 329.98,-284.72 329.98,-284.72"/>
<polygon fill="black" stroke="black" points="326.48,-284.72 329.98,-294.72 333.48,-284.72 326.48,-284.72"/>
</g>
<!-- DictionaryModule&#45;&gt;AppModule -->
<g id="edge4" class="edge">
<title>DictionaryModule&#45;&gt;AppModule</title>
<path fill="none" stroke="black" d="M314.58,-266.11C314.58,-299.87 314.58,-369 314.58,-369 314.58,-369 373.26,-369 373.26,-369"/>
<polygon fill="black" stroke="black" points="373.26,-372.5 383.26,-369 373.26,-365.5 373.26,-372.5"/>
</g>
<!-- DictionaryService  -->
<g id="node10" class="node">
<title>DictionaryService </title>
<polygon fill="#fb8072" stroke="black" points="782.85,-190 661.15,-190 661.15,-154 782.85,-154 782.85,-190"/>
<text text-anchor="middle" x="722" y="-167.8" font-family="Times,serif" font-size="14.00">DictionaryService </text>
</g>
<!-- DictionaryModule&#45;&gt;DictionaryService  -->
<g id="edge10" class="edge">
<title>DictionaryModule&#45;&gt;DictionaryService </title>
<path fill="none" stroke="black" stroke-dasharray="5,2" d="M321.52,-229.89C321.52,-220.1 321.52,-210 321.52,-210 321.52,-210 722,-210 722,-210 722,-210 722,-200.11 722,-200.11"/>
<polygon fill="black" stroke="black" points="725.5,-200.11 722,-190.11 718.5,-200.11 725.5,-200.11"/>
</g>
<!-- HealthModule -->
<g id="node5" class="node">
<title>HealthModule</title>
<polygon fill="#8dd3c7" stroke="black" points="551.37,-266 548.37,-270 527.37,-270 524.37,-266 454.63,-266 454.63,-230 551.37,-230 551.37,-266"/>
<text text-anchor="middle" x="503" y="-243.8" font-family="Times,serif" font-size="14.00">HealthModule</text>
</g>
<!-- HealthModule&#45;&gt;AppModule -->
<g id="edge5" class="edge">
<title>HealthModule&#45;&gt;AppModule</title>
<path fill="none" stroke="black" d="M460.7,-266.08C460.7,-266.08 460.7,-349.66 460.7,-349.66"/>
<polygon fill="black" stroke="black" points="457.2,-349.66 460.7,-359.66 464.2,-349.66 457.2,-349.66"/>
</g>
<!-- SearchModule&#45;&gt;AppModule -->
<g id="edge6" class="edge">
<title>SearchModule&#45;&gt;AppModule</title>
<path fill="none" stroke="black" d="M257,-331.11C257,-350.34 257,-378 257,-378 257,-378 373.04,-378 373.04,-378"/>
<polygon fill="black" stroke="black" points="373.04,-381.5 383.04,-378 373.04,-374.5 373.04,-381.5"/>
</g>
<!-- SetupModule -->
<g id="node7" class="node">
<title>SetupModule</title>
<polygon fill="#8dd3c7" stroke="black" points="436.94,-266 433.94,-270 412.94,-270 409.94,-266 345.06,-266 345.06,-230 436.94,-230 436.94,-266"/>
<text text-anchor="middle" x="391" y="-243.8" font-family="Times,serif" font-size="14.00">SetupModule</text>
</g>
<!-- SetupModule&#45;&gt;AppModule -->
<g id="edge7" class="edge">
<title>SetupModule&#45;&gt;AppModule</title>
<path fill="none" stroke="black" d="M436.78,-248C444.79,-248 450.61,-248 450.61,-248 450.61,-248 450.61,-349.92 450.61,-349.92"/>
<polygon fill="black" stroke="black" points="447.11,-349.92 450.61,-359.92 454.11,-349.92 447.11,-349.92"/>
</g>
<!-- TranslationModule&#45;&gt;AppModule -->
<g id="edge8" class="edge">
<title>TranslationModule&#45;&gt;AppModule</title>
<path fill="none" stroke="black" d="M414.91,-331.11C414.91,-331.11 414.91,-349.99 414.91,-349.99"/>
<polygon fill="black" stroke="black" points="411.41,-349.99 414.91,-359.99 418.41,-349.99 411.41,-349.99"/>
</g>
<!-- DictionaryService -->
<g id="node11" class="node">
<title>DictionaryService</title>
<ellipse fill="#fdb462" stroke="black" cx="556" cy="-172" rx="81.08" ry="18"/>
<text text-anchor="middle" x="556" y="-167.8" font-family="Times,serif" font-size="14.00">DictionaryService</text>
</g>
<!-- DictionaryService&#45;&gt;DictionaryModule -->
<g id="edge11" class="edge">
<title>DictionaryService&#45;&gt;DictionaryModule</title>
<path fill="none" stroke="black" d="M513.07,-187.63C513.07,-195.75 513.07,-204 513.07,-204 513.07,-204 324.61,-204 324.61,-204 324.61,-204 324.61,-219.85 324.61,-219.85"/>
<polygon fill="black" stroke="black" points="321.11,-219.85 324.61,-229.85 328.11,-219.85 321.11,-219.85"/>
</g>
<!-- RequestService  -->
<g id="node12" class="node">
<title>RequestService </title>
<polygon fill="#fb8072" stroke="black" points="929.08,-266 822.92,-266 822.92,-230 929.08,-230 929.08,-266"/>
<text text-anchor="middle" x="876" y="-243.8" font-family="Times,serif" font-size="14.00">RequestService </text>
</g>
<!-- RequestModule -->
<g id="node13" class="node">
<title>RequestModule</title>
<polygon fill="#8dd3c7" stroke="black" points="923.15,-190 920.15,-194 899.15,-194 896.15,-190 818.85,-190 818.85,-154 923.15,-154 923.15,-190"/>
<text text-anchor="middle" x="871" y="-167.8" font-family="Times,serif" font-size="14.00">RequestModule</text>
</g>
<!-- RequestModule&#45;&gt;SetupModule -->
<g id="edge20" class="edge">
<title>RequestModule&#45;&gt;SetupModule</title>
<path fill="none" stroke="black" d="M856.25,-190.04C856.25,-202.56 856.25,-217 856.25,-217 856.25,-217 390.25,-217 390.25,-217 390.25,-217 390.25,-219.97 390.25,-219.97"/>
<polygon fill="black" stroke="black" points="386.75,-219.97 390.25,-229.97 393.75,-219.97 386.75,-219.97"/>
</g>
<!-- RequestModule&#45;&gt;RequestService  -->
<g id="edge12" class="edge">
<title>RequestModule&#45;&gt;RequestService </title>
<path fill="none" stroke="black" stroke-dasharray="5,2" d="M889.79,-190.01C889.79,-190.01 889.79,-219.85 889.79,-219.85"/>
<polygon fill="black" stroke="black" points="886.29,-219.85 889.79,-229.85 893.29,-219.85 886.29,-219.85"/>
</g>
<!-- SeederService  -->
<g id="node14" class="node">
<title>SeederService </title>
<polygon fill="#fb8072" stroke="black" points="1292.57,-266 1193.43,-266 1193.43,-230 1292.57,-230 1292.57,-266"/>
<text text-anchor="middle" x="1243" y="-243.8" font-family="Times,serif" font-size="14.00">SeederService </text>
</g>
<!-- SeederModule -->
<g id="node15" class="node">
<title>SeederModule</title>
<polygon fill="#8dd3c7" stroke="black" points="1291.64,-190 1288.64,-194 1267.64,-194 1264.64,-190 1194.36,-190 1194.36,-154 1291.64,-154 1291.64,-190"/>
<text text-anchor="middle" x="1243" y="-167.8" font-family="Times,serif" font-size="14.00">SeederModule</text>
</g>
<!-- SeederModule&#45;&gt;SetupModule -->
<g id="edge21" class="edge">
<title>SeederModule&#45;&gt;SetupModule</title>
<path fill="none" stroke="black" d="M1226.73,-190.19C1226.73,-205.18 1226.73,-224 1226.73,-224 1226.73,-224 412.73,-224 412.73,-224 412.73,-224 412.73,-224.58 412.73,-224.58"/>
<polygon fill="black" stroke="black" points="409.23,-219.81 412.73,-229.81 416.23,-219.81 409.23,-219.81"/>
</g>
<!-- SeederModule&#45;&gt;SeederService  -->
<g id="edge15" class="edge">
<title>SeederModule&#45;&gt;SeederService </title>
<path fill="none" stroke="black" stroke-dasharray="5,2" d="M1259.27,-190.01C1259.27,-190.01 1259.27,-219.85 1259.27,-219.85"/>
<polygon fill="black" stroke="black" points="1255.77,-219.85 1259.27,-229.85 1262.77,-219.85 1255.77,-219.85"/>
</g>
<!-- AddDefaultValuesForDevelopment -->
<g id="node16" class="node">
<title>AddDefaultValuesForDevelopment</title>
<ellipse fill="#fdb462" stroke="black" cx="1476" cy="-104" rx="148.74" ry="18"/>
<text text-anchor="middle" x="1476" y="-99.8" font-family="Times,serif" font-size="14.00">AddDefaultValuesForDevelopment</text>
</g>
<!-- AddDefaultValuesForDevelopment&#45;&gt;SeederModule -->
<g id="edge16" class="edge">
<title>AddDefaultValuesForDevelopment&#45;&gt;SeederModule</title>
<path fill="none" stroke="black" d="M1476,-122.22C1476,-142.37 1476,-172 1476,-172 1476,-172 1301.84,-172 1301.84,-172"/>
<polygon fill="black" stroke="black" points="1301.84,-168.5 1291.84,-172 1301.84,-175.5 1301.84,-168.5"/>
</g>
<!-- SeederService -->
<g id="node17" class="node">
<title>SeederService</title>
<ellipse fill="#fdb462" stroke="black" cx="1243" cy="-104" rx="66.03" ry="18"/>
<text text-anchor="middle" x="1243" y="-99.8" font-family="Times,serif" font-size="14.00">SeederService</text>
</g>
<!-- SeederService&#45;&gt;SeederModule -->
<g id="edge17" class="edge">
<title>SeederService&#45;&gt;SeederModule</title>
<path fill="none" stroke="black" d="M1243,-122.22C1243,-122.22 1243,-143.73 1243,-143.73"/>
<polygon fill="black" stroke="black" points="1239.5,-143.73 1243,-153.73 1246.5,-143.73 1239.5,-143.73"/>
</g>
<!-- ConfigModule -->
<g id="node18" class="node">
<title>ConfigModule</title>
<polygon fill="#8dd3c7" stroke="black" points="435.44,-190 432.44,-194 411.44,-194 408.44,-190 336.56,-190 336.56,-154 435.44,-154 435.44,-190"/>
<text text-anchor="middle" x="386" y="-167.8" font-family="Times,serif" font-size="14.00">ConfigModule</text>
</g>
<!-- ConfigModule&#45;&gt;SetupModule -->
<g id="edge18" class="edge">
<title>ConfigModule&#45;&gt;SetupModule</title>
<path fill="none" stroke="black" d="M367.77,-190.01C367.77,-190.01 367.77,-219.85 367.77,-219.85"/>
<polygon fill="black" stroke="black" points="364.27,-219.85 367.77,-229.85 371.27,-219.85 364.27,-219.85"/>
</g>
<!-- DatabaseModule -->
<g id="node19" class="node">
<title>DatabaseModule</title>
<polygon fill="#8dd3c7" stroke="black" points="318.35,-190 315.35,-194 294.35,-194 291.35,-190 207.65,-190 207.65,-154 318.35,-154 318.35,-190"/>
<text text-anchor="middle" x="263" y="-167.8" font-family="Times,serif" font-size="14.00">DatabaseModule</text>
</g>
<!-- DatabaseModule&#45;&gt;SetupModule -->
<g id="edge19" class="edge">
<title>DatabaseModule&#45;&gt;SetupModule</title>
<path fill="none" stroke="black" d="M318.64,-172C327.87,-172 334.51,-172 334.51,-172 334.51,-172 334.51,-254 334.51,-254 334.51,-254 335.58,-254 335.58,-254"/>
<polygon fill="black" stroke="black" points="335.14,-257.5 345.14,-254 335.14,-250.5 335.14,-257.5"/>
</g>
<!-- TranslationService -->
<g id="node20" class="node">
<title>TranslationService</title>
<ellipse fill="#fdb462" stroke="black" cx="1053" cy="-248" rx="83.94" ry="18"/>
<text text-anchor="middle" x="1053" y="-243.8" font-family="Times,serif" font-size="14.00">TranslationService</text>
</g>
<!-- TranslationService&#45;&gt;TranslationModule -->
<g id="edge24" class="edge">
<title>TranslationService&#45;&gt;TranslationModule</title>
<path fill="none" stroke="black" d="M1053,-266.11C1053,-285.34 1053,-313 1053,-313 1053,-313 456.94,-313 456.94,-313"/>
<polygon fill="black" stroke="black" points="456.94,-309.5 446.94,-313 456.94,-316.5 456.94,-309.5"/>
</g>
</g>
</svg>
