<?xml version="1.0" encoding="UTF-8" standalone="no"?>
<!DOCTYPE svg PUBLIC "-//W3C//DTD SVG 1.1//EN"
 "http://www.w3.org/Graphics/SVG/1.1/DTD/svg11.dtd">
<!-- Generated by graphviz version 2.47.0 (20210316.0004)
 -->
<!-- Title: dependencies Pages: 1 -->
<svg width="504pt" height="211pt"
 viewBox="0.00 0.00 504.00 211.00" xmlns="http://www.w3.org/2000/svg" xmlns:xlink="http://www.w3.org/1999/xlink">
<g id="graph0" class="graph" transform="scale(1 1) rotate(0) translate(4 207)">
<title>dependencies</title>
<polygon fill="white" stroke="transparent" points="-4,4 -4,-207 500,-207 500,4 -4,4"/>
<text text-anchor="start" x="227.01" y="-42.4" font-family="Times-12" font-weight="bold" font-size="14.00">Legend</text>
<polygon fill="#ffffb3" stroke="transparent" points="14,-10 14,-30 34,-30 34,-10 14,-10"/>
<text text-anchor="start" x="37.63" y="-15.4" font-family="Times-12" font-size="14.00"> &#160;Declarations</text>
<polygon fill="#8dd3c7" stroke="transparent" points="127,-10 127,-30 147,-30 147,-10 127,-10"/>
<text text-anchor="start" x="150.73" y="-15.4" font-family="Times-12" font-size="14.00"> &#160;Module</text>
<polygon fill="#80b1d3" stroke="transparent" points="213,-10 213,-30 233,-30 233,-10 213,-10"/>
<text text-anchor="start" x="236.78" y="-15.4" font-family="Times-12" font-size="14.00"> &#160;Bootstrap</text>
<polygon fill="#fdb462" stroke="transparent" points="310,-10 310,-30 330,-30 330,-10 310,-10"/>
<text text-anchor="start" x="333.67" y="-15.4" font-family="Times-12" font-size="14.00"> &#160;Providers</text>
<polygon fill="#fb8072" stroke="transparent" points="406,-10 406,-30 426,-30 426,-10 406,-10"/>
<text text-anchor="start" x="429.73" y="-15.4" font-family="Times-12" font-size="14.00"> &#160;Exports</text>
<g id="clust1" class="cluster">
<title>cluster_SearchModule</title>
<polygon fill="none" stroke="black" stroke-dasharray="1,5" points="110.5,-70 110.5,-195 385.5,-195 385.5,-70 110.5,-70"/>
</g>
<g id="clust3" class="cluster">
<title>cluster_SearchModule_imports</title>
<polygon fill="none" stroke="black" points="118.5,-78 118.5,-130 377.5,-130 377.5,-78 118.5,-78"/>
</g>
<!-- ActivityModule -->
<g id="node1" class="node">
<title>ActivityModule</title>
<polygon fill="#8dd3c7" stroke="black" points="369.43,-122 366.43,-126 345.43,-126 342.43,-122 263.57,-122 263.57,-86 369.43,-86 369.43,-122"/>
<text text-anchor="middle" x="316.5" y="-99.8" font-family="Times,serif" font-size="14.00">ActivityModule</text>
</g>
<!-- SearchModule -->
<g id="node3" class="node">
<title>SearchModule</title>
<polygon fill="#8dd3c7" stroke="black" points="300.14,-187 297.14,-191 276.14,-191 273.14,-187 202.86,-187 202.86,-151 300.14,-151 300.14,-187"/>
<text text-anchor="middle" x="251.5" y="-164.8" font-family="Times,serif" font-size="14.00">SearchModule</text>
</g>
<!-- ActivityModule&#45;&gt;SearchModule -->
<g id="edge1" class="edge">
<title>ActivityModule&#45;&gt;SearchModule</title>
<path fill="none" stroke="black" d="M282.05,-122.11C282.05,-122.11 282.05,-140.99 282.05,-140.99"/>
<polygon fill="black" stroke="black" points="278.55,-140.99 282.05,-150.99 285.55,-140.99 278.55,-140.99"/>
</g>
<!-- DictionaryModule -->
<g id="node2" class="node">
<title>DictionaryModule</title>
<polygon fill="#8dd3c7" stroke="black" points="246.42,-122 243.42,-126 222.42,-126 219.42,-122 126.58,-122 126.58,-86 246.42,-86 246.42,-122"/>
<text text-anchor="middle" x="186.5" y="-99.8" font-family="Times,serif" font-size="14.00">DictionaryModule</text>
</g>
<!-- DictionaryModule&#45;&gt;SearchModule -->
<g id="edge2" class="edge">
<title>DictionaryModule&#45;&gt;SearchModule</title>
<path fill="none" stroke="black" d="M224.45,-122.11C224.45,-122.11 224.45,-140.99 224.45,-140.99"/>
<polygon fill="black" stroke="black" points="220.95,-140.99 224.45,-150.99 227.95,-140.99 220.95,-140.99"/>
</g>
</g>
</svg>
