<?xml version="1.0" encoding="UTF-8" standalone="no"?>
<!DOCTYPE svg PUBLIC "-//W3C//DTD SVG 1.1//EN"
 "http://www.w3.org/Graphics/SVG/1.1/DTD/svg11.dtd">
<!-- Generated by graphviz version 2.47.0 (20210316.0004)
 -->
<!-- Title: dependencies Pages: 1 -->
<svg width="780pt" height="211pt"
 viewBox="0.00 0.00 780.00 211.00" xmlns="http://www.w3.org/2000/svg" xmlns:xlink="http://www.w3.org/1999/xlink">
<g id="graph0" class="graph" transform="scale(1 1) rotate(0) translate(4 207)">
<title>dependencies</title>
<polygon fill="white" stroke="transparent" points="-4,4 -4,-207 776,-207 776,4 -4,4"/>
<text text-anchor="start" x="365.01" y="-42.4" font-family="Times-12" font-weight="bold" font-size="14.00">Legend</text>
<polygon fill="#ffffb3" stroke="transparent" points="152,-10 152,-30 172,-30 172,-10 152,-10"/>
<text text-anchor="start" x="175.63" y="-15.4" font-family="Times-12" font-size="14.00"> &#160;Declarations</text>
<polygon fill="#8dd3c7" stroke="transparent" points="265,-10 265,-30 285,-30 285,-10 265,-10"/>
<text text-anchor="start" x="288.73" y="-15.4" font-family="Times-12" font-size="14.00"> &#160;Module</text>
<polygon fill="#80b1d3" stroke="transparent" points="351,-10 351,-30 371,-30 371,-10 351,-10"/>
<text text-anchor="start" x="374.78" y="-15.4" font-family="Times-12" font-size="14.00"> &#160;Bootstrap</text>
<polygon fill="#fdb462" stroke="transparent" points="448,-10 448,-30 468,-30 468,-10 448,-10"/>
<text text-anchor="start" x="471.67" y="-15.4" font-family="Times-12" font-size="14.00"> &#160;Providers</text>
<polygon fill="#fb8072" stroke="transparent" points="544,-10 544,-30 564,-30 564,-10 544,-10"/>
<text text-anchor="start" x="567.73" y="-15.4" font-family="Times-12" font-size="14.00"> &#160;Exports</text>
<g id="clust1" class="cluster">
<title>cluster_AppModule</title>
<polygon fill="none" stroke="black" stroke-dasharray="1,5" points="8,-70 8,-195 764,-195 764,-70 8,-70"/>
</g>
<g id="clust3" class="cluster">
<title>cluster_AppModule_imports</title>
<polygon fill="none" stroke="black" points="16,-78 16,-130 756,-130 756,-78 16,-78"/>
</g>
<!-- ActivityModule -->
<g id="node1" class="node">
<title>ActivityModule</title>
<polygon fill="#8dd3c7" stroke="black" points="747.93,-122 744.93,-126 723.93,-126 720.93,-122 642.07,-122 642.07,-86 747.93,-86 747.93,-122"/>
<text text-anchor="middle" x="695" y="-99.8" font-family="Times,serif" font-size="14.00">ActivityModule</text>
</g>
<!-- AppModule -->
<g id="node7" class="node">
<title>AppModule</title>
<polygon fill="#8dd3c7" stroke="black" points="422.66,-187 419.66,-191 398.66,-191 395.66,-187 339.34,-187 339.34,-151 422.66,-151 422.66,-187"/>
<text text-anchor="middle" x="381" y="-164.8" font-family="Times,serif" font-size="14.00">AppModule</text>
</g>
<!-- ActivityModule&#45;&gt;AppModule -->
<g id="edge1" class="edge">
<title>ActivityModule&#45;&gt;AppModule</title>
<path fill="none" stroke="black" d="M695,-122.28C695,-143.32 695,-175 695,-175 695,-175 432.7,-175 432.7,-175"/>
<polygon fill="black" stroke="black" points="432.7,-171.5 422.7,-175 432.7,-178.5 432.7,-171.5"/>
</g>
<!-- DictionaryModule -->
<g id="node2" class="node">
<title>DictionaryModule</title>
<polygon fill="#8dd3c7" stroke="black" points="624.92,-122 621.92,-126 600.92,-126 597.92,-122 505.08,-122 505.08,-86 624.92,-86 624.92,-122"/>
<text text-anchor="middle" x="565" y="-99.8" font-family="Times,serif" font-size="14.00">DictionaryModule</text>
</g>
<!-- DictionaryModule&#45;&gt;AppModule -->
<g id="edge2" class="edge">
<title>DictionaryModule&#45;&gt;AppModule</title>
<path fill="none" stroke="black" d="M565,-122.02C565,-139.37 565,-163 565,-163 565,-163 432.75,-163 432.75,-163"/>
<polygon fill="black" stroke="black" points="432.75,-159.5 422.75,-163 432.75,-166.5 432.75,-159.5"/>
</g>
<!-- HealthModule -->
<g id="node3" class="node">
<title>HealthModule</title>
<polygon fill="#8dd3c7" stroke="black" points="487.37,-122 484.37,-126 463.37,-126 460.37,-122 390.63,-122 390.63,-86 487.37,-86 487.37,-122"/>
<text text-anchor="middle" x="439" y="-99.8" font-family="Times,serif" font-size="14.00">HealthModule</text>
</g>
<!-- HealthModule&#45;&gt;AppModule -->
<g id="edge3" class="edge">
<title>HealthModule&#45;&gt;AppModule</title>
<path fill="none" stroke="black" d="M406.7,-122.11C406.7,-122.11 406.7,-140.99 406.7,-140.99"/>
<polygon fill="black" stroke="black" points="403.2,-140.99 406.7,-150.99 410.2,-140.99 403.2,-140.99"/>
</g>
<!-- SearchModule -->
<g id="node4" class="node">
<title>SearchModule</title>
<polygon fill="#8dd3c7" stroke="black" points="372.64,-122 369.64,-126 348.64,-126 345.64,-122 275.36,-122 275.36,-86 372.64,-86 372.64,-122"/>
<text text-anchor="middle" x="324" y="-99.8" font-family="Times,serif" font-size="14.00">SearchModule</text>
</g>
<!-- SearchModule&#45;&gt;AppModule -->
<g id="edge4" class="edge">
<title>SearchModule&#45;&gt;AppModule</title>
<path fill="none" stroke="black" d="M356,-122.11C356,-122.11 356,-140.99 356,-140.99"/>
<polygon fill="black" stroke="black" points="352.5,-140.99 356,-150.99 359.5,-140.99 352.5,-140.99"/>
</g>
<!-- SetupModule -->
<g id="node5" class="node">
<title>SetupModule</title>
<polygon fill="#8dd3c7" stroke="black" points="256.94,-122 253.94,-126 232.94,-126 229.94,-122 165.06,-122 165.06,-86 256.94,-86 256.94,-122"/>
<text text-anchor="middle" x="211" y="-99.8" font-family="Times,serif" font-size="14.00">SetupModule</text>
</g>
<!-- SetupModule&#45;&gt;AppModule -->
<g id="edge5" class="edge">
<title>SetupModule&#45;&gt;AppModule</title>
<path fill="none" stroke="black" d="M211,-122.02C211,-139.37 211,-163 211,-163 211,-163 328.98,-163 328.98,-163"/>
<polygon fill="black" stroke="black" points="328.98,-166.5 338.98,-163 328.98,-159.5 328.98,-166.5"/>
</g>
<!-- TranslationModule -->
<g id="node6" class="node">
<title>TranslationModule</title>
<polygon fill="#8dd3c7" stroke="black" points="147.81,-122 144.81,-126 123.81,-126 120.81,-122 24.19,-122 24.19,-86 147.81,-86 147.81,-122"/>
<text text-anchor="middle" x="86" y="-99.8" font-family="Times,serif" font-size="14.00">TranslationModule</text>
</g>
<!-- TranslationModule&#45;&gt;AppModule -->
<g id="edge6" class="edge">
<title>TranslationModule&#45;&gt;AppModule</title>
<path fill="none" stroke="black" d="M86,-122.28C86,-143.32 86,-175 86,-175 86,-175 329.05,-175 329.05,-175"/>
<polygon fill="black" stroke="black" points="329.05,-178.5 339.05,-175 329.05,-171.5 329.05,-178.5"/>
</g>
</g>
</svg>
