<?xml version="1.0" encoding="UTF-8" standalone="no"?>
<!DOCTYPE svg PUBLIC "-//W3C//DTD SVG 1.1//EN"
 "http://www.w3.org/Graphics/SVG/1.1/DTD/svg11.dtd">
<!-- Generated by graphviz version 2.47.0 (20210316.0004)
 -->
<!-- Title: dependencies Pages: 1 -->
<svg width="504pt" height="284pt"
 viewBox="0.00 0.00 504.00 284.00" xmlns="http://www.w3.org/2000/svg" xmlns:xlink="http://www.w3.org/1999/xlink">
<g id="graph0" class="graph" transform="scale(1 1) rotate(0) translate(4 280)">
<title>dependencies</title>
<polygon fill="white" stroke="transparent" points="-4,4 -4,-280 500,-280 500,4 -4,4"/>
<text text-anchor="start" x="227.01" y="-42.4" font-family="Times-12" font-weight="bold" font-size="14.00">Legend</text>
<polygon fill="#ffffb3" stroke="transparent" points="14,-10 14,-30 34,-30 34,-10 14,-10"/>
<text text-anchor="start" x="37.63" y="-15.4" font-family="Times-12" font-size="14.00"> &#160;Declarations</text>
<polygon fill="#8dd3c7" stroke="transparent" points="127,-10 127,-30 147,-30 147,-10 127,-10"/>
<text text-anchor="start" x="150.73" y="-15.4" font-family="Times-12" font-size="14.00"> &#160;Module</text>
<polygon fill="#80b1d3" stroke="transparent" points="213,-10 213,-30 233,-30 233,-10 213,-10"/>
<text text-anchor="start" x="236.78" y="-15.4" font-family="Times-12" font-size="14.00"> &#160;Bootstrap</text>
<polygon fill="#fdb462" stroke="transparent" points="310,-10 310,-30 330,-30 330,-10 310,-10"/>
<text text-anchor="start" x="333.67" y="-15.4" font-family="Times-12" font-size="14.00"> &#160;Providers</text>
<polygon fill="#fb8072" stroke="transparent" points="406,-10 406,-30 426,-30 426,-10 406,-10"/>
<text text-anchor="start" x="429.73" y="-15.4" font-family="Times-12" font-size="14.00"> &#160;Exports</text>
<g id="clust1" class="cluster">
<title>cluster_DictionaryModule</title>
<polygon fill="none" stroke="black" stroke-dasharray="1,5" points="86,-70 86,-268 410,-268 410,-70 86,-70"/>
</g>
<g id="clust3" class="cluster">
<title>cluster_DictionaryModule_imports</title>
<polygon fill="none" stroke="black" points="280,-78 280,-130 402,-130 402,-78 280,-78"/>
</g>
<g id="clust4" class="cluster">
<title>cluster_DictionaryModule_exports</title>
<polygon fill="none" stroke="black" points="189,-208 189,-260 327,-260 327,-208 189,-208"/>
</g>
<g id="clust6" class="cluster">
<title>cluster_DictionaryModule_providers</title>
<polygon fill="none" stroke="black" points="94,-78 94,-130 272,-130 272,-78 94,-78"/>
</g>
<!-- ActivityModule -->
<g id="node1" class="node">
<title>ActivityModule</title>
<polygon fill="#8dd3c7" stroke="black" points="393.93,-122 390.93,-126 369.93,-126 366.93,-122 288.07,-122 288.07,-86 393.93,-86 393.93,-122"/>
<text text-anchor="middle" x="341" y="-99.8" font-family="Times,serif" font-size="14.00">ActivityModule</text>
</g>
<!-- DictionaryModule -->
<g id="node2" class="node">
<title>DictionaryModule</title>
<polygon fill="#8dd3c7" stroke="black" points="317.92,-187 314.92,-191 293.92,-191 290.92,-187 198.08,-187 198.08,-151 317.92,-151 317.92,-187"/>
<text text-anchor="middle" x="258" y="-164.8" font-family="Times,serif" font-size="14.00">DictionaryModule</text>
</g>
<!-- ActivityModule&#45;&gt;DictionaryModule -->
<g id="edge1" class="edge">
<title>ActivityModule&#45;&gt;DictionaryModule</title>
<path fill="none" stroke="black" d="M303,-122.11C303,-122.11 303,-140.99 303,-140.99"/>
<polygon fill="black" stroke="black" points="299.5,-140.99 303,-150.99 306.5,-140.99 299.5,-140.99"/>
</g>
<!-- DictionaryService  -->
<g id="node3" class="node">
<title>DictionaryService </title>
<polygon fill="#fb8072" stroke="black" points="318.85,-252 197.15,-252 197.15,-216 318.85,-216 318.85,-252"/>
<text text-anchor="middle" x="258" y="-229.8" font-family="Times,serif" font-size="14.00">DictionaryService </text>
</g>
<!-- DictionaryModule&#45;&gt;DictionaryService  -->
<g id="edge2" class="edge">
<title>DictionaryModule&#45;&gt;DictionaryService </title>
<path fill="none" stroke="black" stroke-dasharray="5,2" d="M258,-187.11C258,-187.11 258,-205.99 258,-205.99"/>
<polygon fill="black" stroke="black" points="254.5,-205.99 258,-215.99 261.5,-205.99 254.5,-205.99"/>
</g>
<!-- DictionaryService -->
<g id="node4" class="node">
<title>DictionaryService</title>
<ellipse fill="#fdb462" stroke="black" cx="183" cy="-104" rx="81.08" ry="18"/>
<text text-anchor="middle" x="183" y="-99.8" font-family="Times,serif" font-size="14.00">DictionaryService</text>
</g>
<!-- DictionaryService&#45;&gt;DictionaryModule -->
<g id="edge3" class="edge">
<title>DictionaryService&#45;&gt;DictionaryModule</title>
<path fill="none" stroke="black" d="M231.29,-118.75C231.29,-118.75 231.29,-140.59 231.29,-140.59"/>
<polygon fill="black" stroke="black" points="227.79,-140.59 231.29,-150.59 234.79,-140.59 227.79,-140.59"/>
</g>
</g>
</svg>
