<?xml version="1.0" encoding="UTF-8" standalone="no"?><svg xmlns="http://www.w3.org/2000/svg" xmlns:xlink="http://www.w3.org/1999/xlink" contentStyleType="text/css" height="475px" preserveAspectRatio="none" style="width:1362px;height:475px;background:#FFFFFF;" version="1.1" viewBox="0 0 1362 475" width="1362px" zoomAndPan="magnify"><defs/><g><!--MD5=[f1ccb7e418b0cbbebecdad8dd55cdaba]
class dictionary--><g id="elem_dictionary"><rect codeLine="25" fill="#FFFFFF" height="192.6094" id="dictionary" rx="2.5" ry="2.5" style="stroke:#2E8B57;stroke-width:0.5;" width="544.3333" x="7" y="7"/><text fill="#000000" font-family="sans-serif" font-size="14" font-weight="bold" lengthAdjust="spacing" textLength="84" x="237.1667" y="24.9951">Dictionary</text><text fill="#808080" font-family="sans-serif" font-size="10" lengthAdjust="spacing" textLength="62" x="248.1667" y="37.5791">(dictionary)</text><line style="stroke:#2E8B57;stroke-width:0.5;" x1="8" x2="550.3333" y1="44.9375" y2="44.9375"/><path d="M20.4167,52.401 C18.8067,52.401 17.5,53.7077 17.5,55.3177 C17.5,55.5044 17.5,55.691 17.535,55.866 L14,59.401 L14,61.7344 L17.5,61.7344 L17.5,59.401 L19.8333,59.401 L19.8333,58.2344 L19.8683,58.1994 C20.0433,58.2344 20.23,58.2344 20.4167,58.2344 C22.0267,58.2344 23.3333,56.9277 23.3333,55.3177 C23.3333,53.7077 22.0267,52.401 20.4167,52.401 M21,53.5677 C21.6417,53.5677 22.1667,54.0927 22.1667,54.7344 C22.1667,55.376 21.6417,55.901 21,55.901 C20.3583,55.901 19.8333,55.376 19.8333,54.7344 C19.8333,54.0927 20.3583,53.5677 21,53.5677 " fill="#B8860B" style="stroke:;stroke-width:0.0;stroke-dasharray:;"/><text fill="#000000" font-family="sans-serif" font-size="14" font-weight="bold" lengthAdjust="spacing" textLength="15" x="29.3333" y="61.9326">id</text><text fill="#000000" font-family="sans-serif" font-size="14" lengthAdjust="spacing" textLength="71" x="44.3333" y="61.9326">: INTEGER</text><path d="M17.5,68.6979 C15.5633,68.6979 14,70.2612 14,72.1979 C14,74.1346 15.5633,75.6979 17.5,75.6979 C19.4367,75.6979 21,74.1346 21,72.1979 C21,70.2612 19.4367,68.6979 17.5,68.6979 " fill="#EFEFEF" style="stroke:;stroke-width:0.0;stroke-dasharray:;"/><text fill="#000000" font-family="sans-serif" font-size="14" lengthAdjust="spacing" textLength="71" x="28.3333" y="78.2295">uuid: UUID</text><path d="M17.5,84.9948 C15.5633,84.9948 14,86.5581 14,88.4948 C14,90.4315 15.5633,91.9948 17.5,91.9948 C19.4367,91.9948 21,90.4315 21,88.4948 C21,86.5581 19.4367,84.9948 17.5,84.9948 " fill="#EFEFEF" style="stroke:;stroke-width:0.0;stroke-dasharray:;"/><text fill="#000000" font-family="sans-serif" font-size="14" lengthAdjust="spacing" textLength="238" x="28.3333" y="94.5264">value: CHARACTER VARYING(512)</text><path d="M17.5,101.2917 C15.5633,101.2917 14,102.855 14,104.7917 C14,106.7283 15.5633,108.2917 17.5,108.2917 C19.4367,108.2917 21,106.7283 21,104.7917 C21,102.855 19.4367,101.2917 17.5,101.2917 " fill="#EFEFEF" style="stroke:;stroke-width:0.0;stroke-dasharray:;"/><text fill="#000000" font-family="sans-serif" font-size="14" lengthAdjust="spacing" textLength="128" x="28.3333" y="110.8232">description: TEXT</text><path d="M17.5,117.5885 C15.5633,117.5885 14,119.1519 14,121.0885 C14,123.0252 15.5633,124.5885 17.5,124.5885 C19.4367,124.5885 21,123.0252 21,121.0885 C21,119.1519 19.4367,117.5885 17.5,117.5885 " fill="#EFEFEF" style="stroke:;stroke-width:0.0;stroke-dasharray:;"/><text fill="#000000" font-family="sans-serif" font-size="14" lengthAdjust="spacing" textLength="242" x="28.3333" y="127.1201">language: ENUM(en, ru, ka, me, sv)</text><path d="M17.5,133.8854 C15.5633,133.8854 14,135.4488 14,137.3854 C14,139.3221 15.5633,140.8854 17.5,140.8854 C19.4367,140.8854 21,139.3221 21,137.3854 C21,135.4488 19.4367,133.8854 17.5,133.8854 " fill="#EFEFEF" style="stroke:;stroke-width:0.0;stroke-dasharray:;"/><text fill="#000000" font-family="sans-serif" font-size="14" lengthAdjust="spacing" textLength="239" x="28.3333" y="143.417">source: CHARACTER VARYING(32)</text><path d="M17.5,150.1823 C15.5633,150.1823 14,151.7456 14,153.6823 C14,155.619 15.5633,157.1823 17.5,157.1823 C19.4367,157.1823 21,155.619 21,153.6823 C21,151.7456 19.4367,150.1823 17.5,150.1823 " fill="#EFEFEF" style="stroke:;stroke-width:0.0;stroke-dasharray:;"/><text fill="#000000" font-family="sans-serif" font-size="14" lengthAdjust="spacing" textLength="517" x="28.3333" y="159.7139">status: ENUM(ACTIVE, INACTIVE, DELETED, PENDING, REJECTED, HIDDEN)</text><path d="M17.5,166.4792 C15.5633,166.4792 14,168.0425 14,169.9792 C14,171.9158 15.5633,173.4792 17.5,173.4792 C19.4367,173.4792 21,171.9158 21,169.9792 C21,168.0425 19.4367,166.4792 17.5,166.4792 " fill="#EFEFEF" style="stroke:;stroke-width:0.0;stroke-dasharray:;"/><text fill="#000000" font-family="sans-serif" font-size="14" lengthAdjust="spacing" textLength="336" x="28.3333" y="176.0107">createdAt: TIMESTAMP WITHOUT TIME ZONE(6)</text><path d="M17.5,182.776 C15.5633,182.776 14,184.3394 14,186.276 C14,188.2127 15.5633,189.776 17.5,189.776 C19.4367,189.776 21,188.2127 21,186.276 C21,184.3394 19.4367,182.776 17.5,182.776 " fill="#EFEFEF" style="stroke:;stroke-width:0.0;stroke-dasharray:;"/><text fill="#000000" font-family="sans-serif" font-size="14" lengthAdjust="spacing" textLength="340" x="28.3333" y="192.3076">updatedAt: TIMESTAMP WITHOUT TIME ZONE(6)</text></g><!--MD5=[cf3e15eab2b107082b592583faaf73e9]
class translations--><g id="elem_translations"><rect codeLine="37" fill="#FFFFFF" height="208.9063" id="translations" rx="2.5" ry="2.5" style="stroke:#2E8B57;stroke-width:0.5;" width="544.3333" x="7" y="260"/><text fill="#000000" font-family="sans-serif" font-size="14" font-weight="bold" lengthAdjust="spacing" textLength="95" x="231.6667" y="277.9951">Translation</text><text fill="#808080" font-family="sans-serif" font-size="10" lengthAdjust="spacing" textLength="71" x="243.6667" y="290.5791">(translations)</text><line style="stroke:#2E8B57;stroke-width:0.5;" x1="8" x2="550.3333" y1="297.9375" y2="297.9375"/><path d="M20.4167,305.401 C18.8067,305.401 17.5,306.7077 17.5,308.3177 C17.5,308.5044 17.5,308.691 17.535,308.866 L14,312.401 L14,314.7344 L17.5,314.7344 L17.5,312.401 L19.8333,312.401 L19.8333,311.2344 L19.8683,311.1994 C20.0433,311.2344 20.23,311.2344 20.4167,311.2344 C22.0267,311.2344 23.3333,309.9277 23.3333,308.3177 C23.3333,306.7077 22.0267,305.401 20.4167,305.401 M21,306.5677 C21.6417,306.5677 22.1667,307.0927 22.1667,307.7344 C22.1667,308.376 21.6417,308.901 21,308.901 C20.3583,308.901 19.8333,308.376 19.8333,307.7344 C19.8333,307.0927 20.3583,306.5677 21,306.5677 " fill="#B8860B" style="stroke:;stroke-width:0.0;stroke-dasharray:;"/><text fill="#000000" font-family="sans-serif" font-size="14" font-weight="bold" lengthAdjust="spacing" textLength="15" x="29.3333" y="314.9326">id</text><text fill="#000000" font-family="sans-serif" font-size="14" lengthAdjust="spacing" textLength="71" x="44.3333" y="314.9326">: INTEGER</text><path d="M17.5,321.6979 C15.5633,321.6979 14,323.2613 14,325.1979 C14,327.1346 15.5633,328.6979 17.5,328.6979 C19.4367,328.6979 21,327.1346 21,325.1979 C21,323.2613 19.4367,321.6979 17.5,321.6979 " fill="#EFEFEF" style="stroke:;stroke-width:0.0;stroke-dasharray:;"/><text fill="#000000" font-family="sans-serif" font-size="14" lengthAdjust="spacing" textLength="71" x="28.3333" y="331.2295">uuid: UUID</text><path d="M17.5,337.9948 C15.5633,337.9948 14,339.5581 14,341.4948 C14,343.4315 15.5633,344.9948 17.5,344.9948 C19.4367,344.9948 21,343.4315 21,341.4948 C21,339.5581 19.4367,337.9948 17.5,337.9948 " fill="#EFEFEF" style="stroke:;stroke-width:0.0;stroke-dasharray:;"/><text fill="#000000" font-family="sans-serif" font-size="14" lengthAdjust="spacing" textLength="238" x="28.3333" y="347.5264">value: CHARACTER VARYING(512)</text><path d="M17.5,354.2917 C15.5633,354.2917 14,355.855 14,357.7917 C14,359.7283 15.5633,361.2917 17.5,361.2917 C19.4367,361.2917 21,359.7283 21,357.7917 C21,355.855 19.4367,354.2917 17.5,354.2917 " fill="#EFEFEF" style="stroke:;stroke-width:0.0;stroke-dasharray:;"/><text fill="#000000" font-family="sans-serif" font-size="14" lengthAdjust="spacing" textLength="128" x="28.3333" y="363.8232">description: TEXT</text><path d="M17.5,370.5885 C15.5633,370.5885 14,372.1519 14,374.0885 C14,376.0252 15.5633,377.5885 17.5,377.5885 C19.4367,377.5885 21,376.0252 21,374.0885 C21,372.1519 19.4367,370.5885 17.5,370.5885 " fill="#EFEFEF" style="stroke:;stroke-width:0.0;stroke-dasharray:;"/><text fill="#000000" font-family="sans-serif" font-size="14" lengthAdjust="spacing" textLength="242" x="28.3333" y="380.1201">language: ENUM(en, ru, ka, me, sv)</text><path d="M17.5,386.8854 C15.5633,386.8854 14,388.4488 14,390.3854 C14,392.3221 15.5633,393.8854 17.5,393.8854 C19.4367,393.8854 21,392.3221 21,390.3854 C21,388.4488 19.4367,386.8854 17.5,386.8854 " fill="#EFEFEF" style="stroke:;stroke-width:0.0;stroke-dasharray:;"/><text fill="#000000" font-family="sans-serif" font-size="14" lengthAdjust="spacing" textLength="239" x="28.3333" y="396.417">source: CHARACTER VARYING(32)</text><path d="M17.5,403.1823 C15.5633,403.1823 14,404.7456 14,406.6823 C14,408.619 15.5633,410.1823 17.5,410.1823 C19.4367,410.1823 21,408.619 21,406.6823 C21,404.7456 19.4367,403.1823 17.5,403.1823 " fill="#EFEFEF" style="stroke:;stroke-width:0.0;stroke-dasharray:;"/><text fill="#000000" font-family="sans-serif" font-size="14" lengthAdjust="spacing" textLength="517" x="28.3333" y="412.7139">status: ENUM(ACTIVE, INACTIVE, DELETED, PENDING, REJECTED, HIDDEN)</text><path d="M17.5,419.4792 C15.5633,419.4792 14,421.0425 14,422.9792 C14,424.9158 15.5633,426.4792 17.5,426.4792 C19.4367,426.4792 21,424.9158 21,422.9792 C21,421.0425 19.4367,419.4792 17.5,419.4792 " fill="#EFEFEF" style="stroke:;stroke-width:0.0;stroke-dasharray:;"/><text fill="#000000" font-family="sans-serif" font-size="14" lengthAdjust="spacing" textLength="336" x="28.3333" y="429.0107">createdAt: TIMESTAMP WITHOUT TIME ZONE(6)</text><path d="M17.5,435.776 C15.5633,435.776 14,437.3394 14,439.276 C14,441.2127 15.5633,442.776 17.5,442.776 C19.4367,442.776 21,441.2127 21,439.276 C21,437.3394 19.4367,435.776 17.5,435.776 " fill="#EFEFEF" style="stroke:;stroke-width:0.0;stroke-dasharray:;"/><text fill="#000000" font-family="sans-serif" font-size="14" lengthAdjust="spacing" textLength="340" x="28.3333" y="445.3076">updatedAt: TIMESTAMP WITHOUT TIME ZONE(6)</text><path d="M20.4167,452.0729 C18.8067,452.0729 17.5,453.3796 17.5,454.9896 C17.5,455.1763 17.5,455.3629 17.535,455.5379 L14,459.0729 L14,461.4062 L17.5,461.4062 L17.5,459.0729 L19.8333,459.0729 L19.8333,457.9062 L19.8683,457.8713 C20.0433,457.9062 20.23,457.9062 20.4167,457.9062 C22.0267,457.9062 23.3333,456.5996 23.3333,454.9896 C23.3333,453.3796 22.0267,452.0729 20.4167,452.0729 M21,453.2396 C21.6417,453.2396 22.1667,453.7646 22.1667,454.4062 C22.1667,455.0479 21.6417,455.5729 21,455.5729 C20.3583,455.5729 19.8333,455.0479 19.8333,454.4062 C19.8333,453.7646 20.3583,453.2396 21,453.2396 " fill="#AAAAAA" style="stroke:;stroke-width:0.0;stroke-dasharray:;"/><text fill="#000000" font-family="sans-serif" font-size="14" lengthAdjust="spacing" textLength="194" x="28.3333" y="461.6045">dictionaryId: INTEGER «FK»</text></g><!--MD5=[ae8a780539e8e4f6ca9eb1ec2bb319fc]
class activity--><g id="elem_activity"><rect codeLine="50" fill="#FFFFFF" height="127.4219" id="activity" rx="2.5" ry="2.5" style="stroke:#2E8B57;stroke-width:0.5;" width="363.3333" x="586.5" y="40"/><text fill="#000000" font-family="sans-serif" font-size="14" font-weight="bold" lengthAdjust="spacing" textLength="64" x="736.1667" y="57.9951">Activity</text><text fill="#808080" font-family="sans-serif" font-size="10" lengthAdjust="spacing" textLength="47" x="744.6667" y="70.5791">(activity)</text><line style="stroke:#2E8B57;stroke-width:0.5;" x1="587.5" x2="948.8333" y1="77.9375" y2="77.9375"/><path d="M599.9167,85.401 C598.3067,85.401 597,86.7077 597,88.3177 C597,88.5044 597,88.691 597.035,88.866 L593.5,92.401 L593.5,94.7344 L597,94.7344 L597,92.401 L599.3333,92.401 L599.3333,91.2344 L599.3683,91.1994 C599.5433,91.2344 599.73,91.2344 599.9167,91.2344 C601.5267,91.2344 602.8333,89.9277 602.8333,88.3177 C602.8333,86.7077 601.5267,85.401 599.9167,85.401 M600.5,86.5677 C601.1417,86.5677 601.6667,87.0927 601.6667,87.7344 C601.6667,88.376 601.1417,88.901 600.5,88.901 C599.8583,88.901 599.3333,88.376 599.3333,87.7344 C599.3333,87.0927 599.8583,86.5677 600.5,86.5677 " fill="#B8860B" style="stroke:;stroke-width:0.0;stroke-dasharray:;"/><text fill="#000000" font-family="sans-serif" font-size="14" font-weight="bold" lengthAdjust="spacing" textLength="15" x="608.8333" y="94.9326">id</text><text fill="#000000" font-family="sans-serif" font-size="14" lengthAdjust="spacing" textLength="71" x="623.8333" y="94.9326">: INTEGER</text><path d="M597,101.6979 C595.0633,101.6979 593.5,103.2612 593.5,105.1979 C593.5,107.1346 595.0633,108.6979 597,108.6979 C598.9367,108.6979 600.5,107.1346 600.5,105.1979 C600.5,103.2612 598.9367,101.6979 597,101.6979 " fill="#EFEFEF" style="stroke:;stroke-width:0.0;stroke-dasharray:;"/><text fill="#000000" font-family="sans-serif" font-size="14" lengthAdjust="spacing" textLength="292" x="607.8333" y="111.2295">action: ENUM(created, updated, deleted)</text><path d="M597,117.9948 C595.0633,117.9948 593.5,119.5581 593.5,121.4948 C593.5,123.4315 595.0633,124.9948 597,124.9948 C598.9367,124.9948 600.5,123.4315 600.5,121.4948 C600.5,119.5581 598.9367,117.9948 597,117.9948 " fill="#EFEFEF" style="stroke:;stroke-width:0.0;stroke-dasharray:;"/><text fill="#000000" font-family="sans-serif" font-size="14" lengthAdjust="spacing" textLength="251" x="607.8333" y="127.5264">type: ENUM(dictionary, translation)</text><path d="M597,134.2917 C595.0633,134.2917 593.5,135.855 593.5,137.7917 C593.5,139.7283 595.0633,141.2917 597,141.2917 C598.9367,141.2917 600.5,139.7283 600.5,137.7917 C600.5,135.855 598.9367,134.2917 597,134.2917 " fill="#EFEFEF" style="stroke:;stroke-width:0.0;stroke-dasharray:;"/><text fill="#000000" font-family="sans-serif" font-size="14" lengthAdjust="spacing" textLength="130" x="607.8333" y="143.8232">properties: JSONB</text><path d="M597,150.5885 C595.0633,150.5885 593.5,152.1519 593.5,154.0885 C593.5,156.0252 595.0633,157.5885 597,157.5885 C598.9367,157.5885 600.5,156.0252 600.5,154.0885 C600.5,152.1519 598.9367,150.5885 597,150.5885 " fill="#EFEFEF" style="stroke:;stroke-width:0.0;stroke-dasharray:;"/><text fill="#000000" font-family="sans-serif" font-size="14" lengthAdjust="spacing" textLength="336" x="607.8333" y="160.1201">createdAt: TIMESTAMP WITHOUT TIME ZONE(6)</text></g><!--MD5=[fc7712e86a2fca108b2e3bb7a7f739b4]
class seeds--><g id="elem_seeds"><rect codeLine="58" fill="#FFFFFF" height="94.8281" id="seeds" rx="2.5" ry="2.5" style="stroke:#2E8B57;stroke-width:0.5;" width="370.3333" x="985" y="56"/><text fill="#000000" font-family="sans-serif" font-size="14" font-weight="bold" lengthAdjust="spacing" textLength="38" x="1151.1667" y="73.9951">Seed</text><text fill="#808080" font-family="sans-serif" font-size="10" lengthAdjust="spacing" textLength="39" x="1150.6667" y="86.5791">(seeds)</text><line style="stroke:#2E8B57;stroke-width:0.5;" x1="986" x2="1354.3333" y1="93.9375" y2="93.9375"/><path d="M998.4167,101.401 C996.8067,101.401 995.5,102.7077 995.5,104.3177 C995.5,104.5044 995.5,104.691 995.535,104.866 L992,108.401 L992,110.7344 L995.5,110.7344 L995.5,108.401 L997.8333,108.401 L997.8333,107.2344 L997.8683,107.1994 C998.0433,107.2344 998.23,107.2344 998.4167,107.2344 C1000.0267,107.2344 1001.3333,105.9277 1001.3333,104.3177 C1001.3333,102.7077 1000.0267,101.401 998.4167,101.401 M999,102.5677 C999.6417,102.5677 1000.1667,103.0927 1000.1667,103.7344 C1000.1667,104.376 999.6417,104.901 999,104.901 C998.3583,104.901 997.8333,104.376 997.8333,103.7344 C997.8333,103.0927 998.3583,102.5677 999,102.5677 " fill="#B8860B" style="stroke:;stroke-width:0.0;stroke-dasharray:;"/><text fill="#000000" font-family="sans-serif" font-size="14" font-weight="bold" lengthAdjust="spacing" textLength="15" x="1007.3333" y="110.9326">id</text><text fill="#000000" font-family="sans-serif" font-size="14" lengthAdjust="spacing" textLength="71" x="1022.3333" y="110.9326">: INTEGER</text><path d="M995.5,117.6979 C993.5633,117.6979 992,119.2612 992,121.1979 C992,123.1346 993.5633,124.6979 995.5,124.6979 C997.4367,124.6979 999,123.1346 999,121.1979 C999,119.2612 997.4367,117.6979 995.5,117.6979 " fill="#EFEFEF" style="stroke:;stroke-width:0.0;stroke-dasharray:;"/><text fill="#000000" font-family="sans-serif" font-size="14" lengthAdjust="spacing" textLength="240" x="1006.3333" y="127.2295">name: CHARACTER VARYING(128)</text><path d="M995.5,133.9948 C993.5633,133.9948 992,135.5581 992,137.4948 C992,139.4315 993.5633,140.9948 995.5,140.9948 C997.4367,140.9948 999,139.4315 999,137.4948 C999,135.5581 997.4367,133.9948 995.5,133.9948 " fill="#EFEFEF" style="stroke:;stroke-width:0.0;stroke-dasharray:;"/><text fill="#000000" font-family="sans-serif" font-size="14" lengthAdjust="spacing" textLength="343" x="1006.3333" y="143.5264">timestamp: TIMESTAMP WITHOUT TIME ZONE(6)</text></g><!--MD5=[1c6a95a605a69b416fe87f1d07d72577]
link dictionary to translations--><g id="link_dictionary_translations"><path codeLine="64" d="M279,208.316 C279,208.316 279,251.955 279,251.955 " fill="none" id="dictionary-translations" style="stroke:#2E8B57;stroke-width:1.0;"/><line style="stroke:#2E8B57;stroke-width:1.0;" x1="279" x2="285" y1="251.955" y2="259.955"/><line style="stroke:#2E8B57;stroke-width:1.0;" x1="279" x2="273" y1="251.955" y2="259.955"/><line style="stroke:#2E8B57;stroke-width:1.0;" x1="279" x2="279" y1="251.955" y2="259.955"/><line style="stroke:#2E8B57;stroke-width:1.0;" x1="283" x2="275" y1="249.955" y2="249.955"/><line style="stroke:#2E8B57;stroke-width:1.0;" x1="275" x2="283" y1="204.316" y2="204.316"/><line style="stroke:#2E8B57;stroke-width:1.0;" x1="275" x2="283" y1="207.316" y2="207.316"/><line style="stroke:#2E8B57;stroke-width:1.0;" x1="279" x2="279" y1="208.316" y2="200.316"/></g><!--MD5=[0186814440b1da680ac78ed5db91acdc]
@startuml
!define table(ename, dbname) entity "<b>ename</b>\n<font size=10 color=gray>(dbname)</font>"

!define pkey(x) {field} <b><color:DarkGoldenRod><&key></color> x</b>
!define fkey(x) {field} <color:#AAAAAA><&key></color> x
!define column(x) {field} <color:#EFEFEF><&media-record></color> x

hide stereotypes
hide methods
hide circle

top to bottom direction

skinparam roundcorner 5
skinparam linetype ortho
skinparam shadowing false
skinparam handwritten false

skinparam class {
    BackgroundColor white
    ArrowColor seagreen
    BorderColor seagreen
}


table( Dictionary, dictionary ) as dictionary {
  pkey( id ): INTEGER 
  column( uuid ): UUID 
  column( value ): CHARACTER VARYING(512) 
  column( description ): TEXT 
  column( language ): ENUM(en, ru, ka, me, sv) 
  column( source ): CHARACTER VARYING(32) 
  column( status ): ENUM(ACTIVE, INACTIVE, DELETED, PENDING, REJECTED, HIDDEN) 
  column( createdAt ): TIMESTAMP WITHOUT TIME ZONE(6) 
  column( updatedAt ): TIMESTAMP WITHOUT TIME ZONE(6) 
}

table( Translation, translations ) as translations {
  pkey( id ): INTEGER 
  column( uuid ): UUID 
  column( value ): CHARACTER VARYING(512) 
  column( description ): TEXT 
  column( language ): ENUM(en, ru, ka, me, sv) 
  column( source ): CHARACTER VARYING(32) 
  column( status ): ENUM(ACTIVE, INACTIVE, DELETED, PENDING, REJECTED, HIDDEN) 
  column( createdAt ): TIMESTAMP WITHOUT TIME ZONE(6) 
  column( updatedAt ): TIMESTAMP WITHOUT TIME ZONE(6) 
  fkey( dictionaryId ): INTEGER <<FK>>
}

table( Activity, activity ) as activity {
  pkey( id ): INTEGER 
  column( action ): ENUM(created, updated, deleted) 
  column( type ): ENUM(dictionary, translation) 
  column( properties ): JSONB 
  column( createdAt ): TIMESTAMP WITHOUT TIME ZONE(6) 
}

table( Seed, seeds ) as seeds {
  pkey( id ): INTEGER 
  column( name ): CHARACTER VARYING(128) 
  column( timestamp ): TIMESTAMP WITHOUT TIME ZONE(6) 
}

"dictionary" ||- -|{ "translations"
@enduml

@startuml


hide stereotypes
hide methods
hide circle

top to bottom direction

skinparam roundcorner 5
skinparam linetype ortho
skinparam shadowing false
skinparam handwritten false

skinparam class {
    BackgroundColor white
    ArrowColor seagreen
    BorderColor seagreen
}


entity "<b>Dictionary</b>\n<font size=10 color=gray>(dictionary)</font>" as dictionary {
  {field} <b><color:DarkGoldenRod><&key></color> id</b>: INTEGER 
  {field} <color:#EFEFEF><&media-record></color> uuid: UUID 
  {field} <color:#EFEFEF><&media-record></color> value: CHARACTER VARYING(512) 
  {field} <color:#EFEFEF><&media-record></color> description: TEXT 
  {field} <color:#EFEFEF><&media-record></color> language: ENUM(en, ru, ka, me, sv) 
  {field} <color:#EFEFEF><&media-record></color> source: CHARACTER VARYING(32) 
  {field} <color:#EFEFEF><&media-record></color> status: ENUM(ACTIVE, INACTIVE, DELETED, PENDING, REJECTED, HIDDEN) 
  {field} <color:#EFEFEF><&media-record></color> createdAt: TIMESTAMP WITHOUT TIME ZONE(6) 
  {field} <color:#EFEFEF><&media-record></color> updatedAt: TIMESTAMP WITHOUT TIME ZONE(6) 
}

entity "<b>Translation</b>\n<font size=10 color=gray>(translations)</font>" as translations {
  {field} <b><color:DarkGoldenRod><&key></color> id</b>: INTEGER 
  {field} <color:#EFEFEF><&media-record></color> uuid: UUID 
  {field} <color:#EFEFEF><&media-record></color> value: CHARACTER VARYING(512) 
  {field} <color:#EFEFEF><&media-record></color> description: TEXT 
  {field} <color:#EFEFEF><&media-record></color> language: ENUM(en, ru, ka, me, sv) 
  {field} <color:#EFEFEF><&media-record></color> source: CHARACTER VARYING(32) 
  {field} <color:#EFEFEF><&media-record></color> status: ENUM(ACTIVE, INACTIVE, DELETED, PENDING, REJECTED, HIDDEN) 
  {field} <color:#EFEFEF><&media-record></color> createdAt: TIMESTAMP WITHOUT TIME ZONE(6) 
  {field} <color:#EFEFEF><&media-record></color> updatedAt: TIMESTAMP WITHOUT TIME ZONE(6) 
  {field} <color:#AAAAAA><&key></color> dictionaryId: INTEGER <<FK>>
}

entity "<b>Activity</b>\n<font size=10 color=gray>(activity)</font>" as activity {
  {field} <b><color:DarkGoldenRod><&key></color> id</b>: INTEGER 
  {field} <color:#EFEFEF><&media-record></color> action: ENUM(created, updated, deleted) 
  {field} <color:#EFEFEF><&media-record></color> type: ENUM(dictionary, translation) 
  {field} <color:#EFEFEF><&media-record></color> properties: JSONB 
  {field} <color:#EFEFEF><&media-record></color> createdAt: TIMESTAMP WITHOUT TIME ZONE(6) 
}

entity "<b>Seed</b>\n<font size=10 color=gray>(seeds)</font>" as seeds {
  {field} <b><color:DarkGoldenRod><&key></color> id</b>: INTEGER 
  {field} <color:#EFEFEF><&media-record></color> name: CHARACTER VARYING(128) 
  {field} <color:#EFEFEF><&media-record></color> timestamp: TIMESTAMP WITHOUT TIME ZONE(6) 
}

"dictionary" ||- -|{ "translations"
@enduml

PlantUML version 1.2022.7beta2(Unknown compile time)
(GPL source distribution)
Java Runtime: Java(TM) SE Runtime Environment
JVM: Java HotSpot(TM) 64-Bit Server VM
Default Encoding: UTF-8
Language: en
Country: US
--></g></svg>