<?xml version="1.0" encoding="UTF-8" standalone="no"?><svg xmlns="http://www.w3.org/2000/svg" xmlns:xlink="http://www.w3.org/1999/xlink" contentStyleType="text/css" height="377px" preserveAspectRatio="none" style="width:1137px;height:377px;background:#FFFFFF;" version="1.1" viewBox="0 0 1137 377" width="1137px" zoomAndPan="magnify"><defs/><g><!--MD5=[f1ccb7e418b0cbbebecdad8dd55cdaba]
class dictionary--><g id="elem_dictionary"><rect codeLine="25" fill="#FFFFFF" height="208.9063" id="dictionary" rx="2.5" ry="2.5" style="stroke:#2E8B57;stroke-width:0.5;" width="544.3333" x="7" y="7"/><text fill="#000000" font-family="sans-serif" font-size="14" font-weight="bold" lengthAdjust="spacing" textLength="84" x="237.1667" y="24.9951">Dictionary</text><text fill="#808080" font-family="sans-serif" font-size="10" lengthAdjust="spacing" textLength="62" x="248.1667" y="37.5791">(dictionary)</text><line style="stroke:#2E8B57;stroke-width:0.5;" x1="8" x2="550.3333" y1="44.9375" y2="44.9375"/><path d="M20.4167,52.401 C18.8067,52.401 17.5,53.7077 17.5,55.3177 C17.5,55.5044 17.5,55.691 17.535,55.866 L14,59.401 L14,61.7344 L17.5,61.7344 L17.5,59.401 L19.8333,59.401 L19.8333,58.2344 L19.8683,58.1994 C20.0433,58.2344 20.23,58.2344 20.4167,58.2344 C22.0267,58.2344 23.3333,56.9277 23.3333,55.3177 C23.3333,53.7077 22.0267,52.401 20.4167,52.401 M21,53.5677 C21.6417,53.5677 22.1667,54.0927 22.1667,54.7344 C22.1667,55.376 21.6417,55.901 21,55.901 C20.3583,55.901 19.8333,55.376 19.8333,54.7344 C19.8333,54.0927 20.3583,53.5677 21,53.5677 " fill="#B8860B" style="stroke:;stroke-width:0.0;stroke-dasharray:;"/><text fill="#000000" font-family="sans-serif" font-size="14" font-weight="bold" lengthAdjust="spacing" textLength="15" x="29.3333" y="61.9326">id</text><text fill="#000000" font-family="sans-serif" font-size="14" lengthAdjust="spacing" textLength="71" x="44.3333" y="61.9326">: INTEGER</text><path d="M17.5,68.6979 C15.5633,68.6979 14,70.2612 14,72.1979 C14,74.1346 15.5633,75.6979 17.5,75.6979 C19.4367,75.6979 21,74.1346 21,72.1979 C21,70.2612 19.4367,68.6979 17.5,68.6979 " fill="#EFEFEF" style="stroke:;stroke-width:0.0;stroke-dasharray:;"/><text fill="#000000" font-family="sans-serif" font-size="14" lengthAdjust="spacing" textLength="71" x="28.3333" y="78.2295">uuid: UUID</text><path d="M17.5,84.9948 C15.5633,84.9948 14,86.5581 14,88.4948 C14,90.4315 15.5633,91.9948 17.5,91.9948 C19.4367,91.9948 21,90.4315 21,88.4948 C21,86.5581 19.4367,84.9948 17.5,84.9948 " fill="#EFEFEF" style="stroke:;stroke-width:0.0;stroke-dasharray:;"/><text fill="#000000" font-family="sans-serif" font-size="14" lengthAdjust="spacing" textLength="83" x="28.3333" y="94.5264">value: TEXT</text><path d="M17.5,101.2917 C15.5633,101.2917 14,102.855 14,104.7917 C14,106.7283 15.5633,108.2917 17.5,108.2917 C19.4367,108.2917 21,106.7283 21,104.7917 C21,102.855 19.4367,101.2917 17.5,101.2917 " fill="#EFEFEF" style="stroke:;stroke-width:0.0;stroke-dasharray:;"/><text fill="#000000" font-family="sans-serif" font-size="14" lengthAdjust="spacing" textLength="128" x="28.3333" y="110.8232">description: TEXT</text><path d="M17.5,117.5885 C15.5633,117.5885 14,119.1519 14,121.0885 C14,123.0252 15.5633,124.5885 17.5,124.5885 C19.4367,124.5885 21,123.0252 21,121.0885 C21,119.1519 19.4367,117.5885 17.5,117.5885 " fill="#EFEFEF" style="stroke:;stroke-width:0.0;stroke-dasharray:;"/><text fill="#000000" font-family="sans-serif" font-size="14" lengthAdjust="spacing" textLength="242" x="28.3333" y="127.1201">language: ENUM(en, ru, ka, me, sv)</text><path d="M17.5,133.8854 C15.5633,133.8854 14,135.4488 14,137.3854 C14,139.3221 15.5633,140.8854 17.5,140.8854 C19.4367,140.8854 21,139.3221 21,137.3854 C21,135.4488 19.4367,133.8854 17.5,133.8854 " fill="#EFEFEF" style="stroke:;stroke-width:0.0;stroke-dasharray:;"/><text fill="#000000" font-family="sans-serif" font-size="14" lengthAdjust="spacing" textLength="130" x="28.3333" y="143.417">properties: JSONB</text><path d="M17.5,150.1823 C15.5633,150.1823 14,151.7456 14,153.6823 C14,155.619 15.5633,157.1823 17.5,157.1823 C19.4367,157.1823 21,155.619 21,153.6823 C21,151.7456 19.4367,150.1823 17.5,150.1823 " fill="#EFEFEF" style="stroke:;stroke-width:0.0;stroke-dasharray:;"/><text fill="#000000" font-family="sans-serif" font-size="14" lengthAdjust="spacing" textLength="143" x="28.3333" y="159.7139">createdBy: NUMBER</text><path d="M17.5,166.4792 C15.5633,166.4792 14,168.0425 14,169.9792 C14,171.9158 15.5633,173.4792 17.5,173.4792 C19.4367,173.4792 21,171.9158 21,169.9792 C21,168.0425 19.4367,166.4792 17.5,166.4792 " fill="#EFEFEF" style="stroke:;stroke-width:0.0;stroke-dasharray:;"/><text fill="#000000" font-family="sans-serif" font-size="14" lengthAdjust="spacing" textLength="517" x="28.3333" y="176.0107">status: ENUM(ACTIVE, INACTIVE, DELETED, PENDING, REJECTED, HIDDEN)</text><path d="M17.5,182.776 C15.5633,182.776 14,184.3394 14,186.276 C14,188.2127 15.5633,189.776 17.5,189.776 C19.4367,189.776 21,188.2127 21,186.276 C21,184.3394 19.4367,182.776 17.5,182.776 " fill="#EFEFEF" style="stroke:;stroke-width:0.0;stroke-dasharray:;"/><text fill="#000000" font-family="sans-serif" font-size="14" lengthAdjust="spacing" textLength="336" x="28.3333" y="192.3076">createdAt: TIMESTAMP WITHOUT TIME ZONE(6)</text><path d="M17.5,199.0729 C15.5633,199.0729 14,200.6363 14,202.5729 C14,204.5096 15.5633,206.0729 17.5,206.0729 C19.4367,206.0729 21,204.5096 21,202.5729 C21,200.6363 19.4367,199.0729 17.5,199.0729 " fill="#EFEFEF" style="stroke:;stroke-width:0.0;stroke-dasharray:;"/><text fill="#000000" font-family="sans-serif" font-size="14" lengthAdjust="spacing" textLength="340" x="28.3333" y="208.6045">updatedAt: TIMESTAMP WITHOUT TIME ZONE(6)</text></g><!--MD5=[cf3e15eab2b107082b592583faaf73e9]
class translations--><g id="elem_translations"><rect codeLine="38" fill="#FFFFFF" height="192.6094" id="translations" rx="2.5" ry="2.5" style="stroke:#2E8B57;stroke-width:0.5;" width="544.3333" x="586" y="15"/><text fill="#000000" font-family="sans-serif" font-size="14" font-weight="bold" lengthAdjust="spacing" textLength="95" x="810.6667" y="32.9951">Translation</text><text fill="#808080" font-family="sans-serif" font-size="10" lengthAdjust="spacing" textLength="71" x="822.6667" y="45.5791">(translations)</text><line style="stroke:#2E8B57;stroke-width:0.5;" x1="587" x2="1129.3333" y1="52.9375" y2="52.9375"/><path d="M599.4167,60.401 C597.8067,60.401 596.5,61.7077 596.5,63.3177 C596.5,63.5044 596.5,63.691 596.535,63.866 L593,67.401 L593,69.7344 L596.5,69.7344 L596.5,67.401 L598.8333,67.401 L598.8333,66.2344 L598.8683,66.1994 C599.0433,66.2344 599.23,66.2344 599.4167,66.2344 C601.0267,66.2344 602.3333,64.9277 602.3333,63.3177 C602.3333,61.7077 601.0267,60.401 599.4167,60.401 M600,61.5677 C600.6417,61.5677 601.1667,62.0927 601.1667,62.7344 C601.1667,63.376 600.6417,63.901 600,63.901 C599.3583,63.901 598.8333,63.376 598.8333,62.7344 C598.8333,62.0927 599.3583,61.5677 600,61.5677 " fill="#B8860B" style="stroke:;stroke-width:0.0;stroke-dasharray:;"/><text fill="#000000" font-family="sans-serif" font-size="14" font-weight="bold" lengthAdjust="spacing" textLength="15" x="608.3333" y="69.9326">id</text><text fill="#000000" font-family="sans-serif" font-size="14" lengthAdjust="spacing" textLength="71" x="623.3333" y="69.9326">: INTEGER</text><path d="M596.5,76.6979 C594.5633,76.6979 593,78.2612 593,80.1979 C593,82.1346 594.5633,83.6979 596.5,83.6979 C598.4367,83.6979 600,82.1346 600,80.1979 C600,78.2612 598.4367,76.6979 596.5,76.6979 " fill="#EFEFEF" style="stroke:;stroke-width:0.0;stroke-dasharray:;"/><text fill="#000000" font-family="sans-serif" font-size="14" lengthAdjust="spacing" textLength="83" x="607.3333" y="86.2295">value: TEXT</text><path d="M596.5,92.9948 C594.5633,92.9948 593,94.5581 593,96.4948 C593,98.4315 594.5633,99.9948 596.5,99.9948 C598.4367,99.9948 600,98.4315 600,96.4948 C600,94.5581 598.4367,92.9948 596.5,92.9948 " fill="#EFEFEF" style="stroke:;stroke-width:0.0;stroke-dasharray:;"/><text fill="#000000" font-family="sans-serif" font-size="14" lengthAdjust="spacing" textLength="128" x="607.3333" y="102.5264">description: TEXT</text><path d="M596.5,109.2917 C594.5633,109.2917 593,110.855 593,112.7917 C593,114.7283 594.5633,116.2917 596.5,116.2917 C598.4367,116.2917 600,114.7283 600,112.7917 C600,110.855 598.4367,109.2917 596.5,109.2917 " fill="#EFEFEF" style="stroke:;stroke-width:0.0;stroke-dasharray:;"/><text fill="#000000" font-family="sans-serif" font-size="14" lengthAdjust="spacing" textLength="242" x="607.3333" y="118.8232">language: ENUM(en, ru, ka, me, sv)</text><path d="M596.5,125.5885 C594.5633,125.5885 593,127.1519 593,129.0885 C593,131.0252 594.5633,132.5885 596.5,132.5885 C598.4367,132.5885 600,131.0252 600,129.0885 C600,127.1519 598.4367,125.5885 596.5,125.5885 " fill="#EFEFEF" style="stroke:;stroke-width:0.0;stroke-dasharray:;"/><text fill="#000000" font-family="sans-serif" font-size="14" lengthAdjust="spacing" textLength="130" x="607.3333" y="135.1201">properties: JSONB</text><path d="M596.5,141.8854 C594.5633,141.8854 593,143.4488 593,145.3854 C593,147.3221 594.5633,148.8854 596.5,148.8854 C598.4367,148.8854 600,147.3221 600,145.3854 C600,143.4488 598.4367,141.8854 596.5,141.8854 " fill="#EFEFEF" style="stroke:;stroke-width:0.0;stroke-dasharray:;"/><text fill="#000000" font-family="sans-serif" font-size="14" lengthAdjust="spacing" textLength="143" x="607.3333" y="151.417">createdBy: NUMBER</text><path d="M596.5,158.1823 C594.5633,158.1823 593,159.7456 593,161.6823 C593,163.619 594.5633,165.1823 596.5,165.1823 C598.4367,165.1823 600,163.619 600,161.6823 C600,159.7456 598.4367,158.1823 596.5,158.1823 " fill="#EFEFEF" style="stroke:;stroke-width:0.0;stroke-dasharray:;"/><text fill="#000000" font-family="sans-serif" font-size="14" lengthAdjust="spacing" textLength="517" x="607.3333" y="167.7139">status: ENUM(ACTIVE, INACTIVE, DELETED, PENDING, REJECTED, HIDDEN)</text><path d="M596.5,174.4792 C594.5633,174.4792 593,176.0425 593,177.9792 C593,179.9158 594.5633,181.4792 596.5,181.4792 C598.4367,181.4792 600,179.9158 600,177.9792 C600,176.0425 598.4367,174.4792 596.5,174.4792 " fill="#EFEFEF" style="stroke:;stroke-width:0.0;stroke-dasharray:;"/><text fill="#000000" font-family="sans-serif" font-size="14" lengthAdjust="spacing" textLength="336" x="607.3333" y="184.0107">createdAt: TIMESTAMP WITHOUT TIME ZONE(6)</text><path d="M596.5,190.776 C594.5633,190.776 593,192.3394 593,194.276 C593,196.2127 594.5633,197.776 596.5,197.776 C598.4367,197.776 600,196.2127 600,194.276 C600,192.3394 598.4367,190.776 596.5,190.776 " fill="#EFEFEF" style="stroke:;stroke-width:0.0;stroke-dasharray:;"/><text fill="#000000" font-family="sans-serif" font-size="14" lengthAdjust="spacing" textLength="340" x="607.3333" y="200.3076">updatedAt: TIMESTAMP WITHOUT TIME ZONE(6)</text></g><!--MD5=[fc7712e86a2fca108b2e3bb7a7f739b4]
class seeds--><g id="elem_seeds"><rect codeLine="50" fill="#FFFFFF" height="94.8281" id="seeds" rx="2.5" ry="2.5" style="stroke:#2E8B57;stroke-width:0.5;" width="370.3333" x="94" y="276"/><text fill="#000000" font-family="sans-serif" font-size="14" font-weight="bold" lengthAdjust="spacing" textLength="38" x="260.1667" y="293.9951">Seed</text><text fill="#808080" font-family="sans-serif" font-size="10" lengthAdjust="spacing" textLength="39" x="259.6667" y="306.5791">(seeds)</text><line style="stroke:#2E8B57;stroke-width:0.5;" x1="95" x2="463.3333" y1="313.9375" y2="313.9375"/><path d="M107.4167,321.401 C105.8067,321.401 104.5,322.7077 104.5,324.3177 C104.5,324.5044 104.5,324.691 104.535,324.866 L101,328.401 L101,330.7344 L104.5,330.7344 L104.5,328.401 L106.8333,328.401 L106.8333,327.2344 L106.8683,327.1994 C107.0433,327.2344 107.23,327.2344 107.4167,327.2344 C109.0267,327.2344 110.3333,325.9277 110.3333,324.3177 C110.3333,322.7077 109.0267,321.401 107.4167,321.401 M108,322.5677 C108.6417,322.5677 109.1667,323.0927 109.1667,323.7344 C109.1667,324.376 108.6417,324.901 108,324.901 C107.3583,324.901 106.8333,324.376 106.8333,323.7344 C106.8333,323.0927 107.3583,322.5677 108,322.5677 " fill="#B8860B" style="stroke:;stroke-width:0.0;stroke-dasharray:;"/><text fill="#000000" font-family="sans-serif" font-size="14" font-weight="bold" lengthAdjust="spacing" textLength="15" x="116.3333" y="330.9326">id</text><text fill="#000000" font-family="sans-serif" font-size="14" lengthAdjust="spacing" textLength="71" x="131.3333" y="330.9326">: INTEGER</text><path d="M104.5,337.6979 C102.5633,337.6979 101,339.2613 101,341.1979 C101,343.1346 102.5633,344.6979 104.5,344.6979 C106.4367,344.6979 108,343.1346 108,341.1979 C108,339.2613 106.4367,337.6979 104.5,337.6979 " fill="#EFEFEF" style="stroke:;stroke-width:0.0;stroke-dasharray:;"/><text fill="#000000" font-family="sans-serif" font-size="14" lengthAdjust="spacing" textLength="240" x="115.3333" y="347.2295">name: CHARACTER VARYING(128)</text><path d="M104.5,353.9948 C102.5633,353.9948 101,355.5581 101,357.4948 C101,359.4315 102.5633,360.9948 104.5,360.9948 C106.4367,360.9948 108,359.4315 108,357.4948 C108,355.5581 106.4367,353.9948 104.5,353.9948 " fill="#EFEFEF" style="stroke:;stroke-width:0.0;stroke-dasharray:;"/><text fill="#000000" font-family="sans-serif" font-size="14" lengthAdjust="spacing" textLength="343" x="115.3333" y="363.5264">timestamp: TIMESTAMP WITHOUT TIME ZONE(6)</text></g><!--MD5=[27b53f4cb6ca67841b28c6f1c354a1ff]
@startuml
!define table(ename, dbname) entity "<b>ename</b>\n<font size=10 color=gray>(dbname)</font>"

!define pkey(x) {field} <b><color:DarkGoldenRod><&key></color> x</b>
!define fkey(x) {field} <color:#AAAAAA><&key></color> x
!define column(x) {field} <color:#EFEFEF><&media-record></color> x

hide stereotypes
hide methods
hide circle

top to bottom direction

skinparam roundcorner 5
skinparam linetype ortho
skinparam shadowing false
skinparam handwritten false

skinparam class {
    BackgroundColor white
    ArrowColor seagreen
    BorderColor seagreen
}


table( Dictionary, dictionary ) as dictionary {
  pkey( id ): INTEGER 
  column( uuid ): UUID 
  column( value ): TEXT 
  column( description ): TEXT 
  column( language ): ENUM(en, ru, ka, me, sv) 
  column( properties ): JSONB 
  column( createdBy ): NUMBER 
  column( status ): ENUM(ACTIVE, INACTIVE, DELETED, PENDING, REJECTED, HIDDEN) 
  column( createdAt ): TIMESTAMP WITHOUT TIME ZONE(6) 
  column( updatedAt ): TIMESTAMP WITHOUT TIME ZONE(6) 
}

table( Translation, translations ) as translations {
  pkey( id ): INTEGER 
  column( value ): TEXT 
  column( description ): TEXT 
  column( language ): ENUM(en, ru, ka, me, sv) 
  column( properties ): JSONB 
  column( createdBy ): NUMBER 
  column( status ): ENUM(ACTIVE, INACTIVE, DELETED, PENDING, REJECTED, HIDDEN) 
  column( createdAt ): TIMESTAMP WITHOUT TIME ZONE(6) 
  column( updatedAt ): TIMESTAMP WITHOUT TIME ZONE(6) 
}

table( Seed, seeds ) as seeds {
  pkey( id ): INTEGER 
  column( name ): CHARACTER VARYING(128) 
  column( timestamp ): TIMESTAMP WITHOUT TIME ZONE(6) 
}
@enduml

@startuml


hide stereotypes
hide methods
hide circle

top to bottom direction

skinparam roundcorner 5
skinparam linetype ortho
skinparam shadowing false
skinparam handwritten false

skinparam class {
    BackgroundColor white
    ArrowColor seagreen
    BorderColor seagreen
}


entity "<b>Dictionary</b>\n<font size=10 color=gray>(dictionary)</font>" as dictionary {
  {field} <b><color:DarkGoldenRod><&key></color> id</b>: INTEGER 
  {field} <color:#EFEFEF><&media-record></color> uuid: UUID 
  {field} <color:#EFEFEF><&media-record></color> value: TEXT 
  {field} <color:#EFEFEF><&media-record></color> description: TEXT 
  {field} <color:#EFEFEF><&media-record></color> language: ENUM(en, ru, ka, me, sv) 
  {field} <color:#EFEFEF><&media-record></color> properties: JSONB 
  {field} <color:#EFEFEF><&media-record></color> createdBy: NUMBER 
  {field} <color:#EFEFEF><&media-record></color> status: ENUM(ACTIVE, INACTIVE, DELETED, PENDING, REJECTED, HIDDEN) 
  {field} <color:#EFEFEF><&media-record></color> createdAt: TIMESTAMP WITHOUT TIME ZONE(6) 
  {field} <color:#EFEFEF><&media-record></color> updatedAt: TIMESTAMP WITHOUT TIME ZONE(6) 
}

entity "<b>Translation</b>\n<font size=10 color=gray>(translations)</font>" as translations {
  {field} <b><color:DarkGoldenRod><&key></color> id</b>: INTEGER 
  {field} <color:#EFEFEF><&media-record></color> value: TEXT 
  {field} <color:#EFEFEF><&media-record></color> description: TEXT 
  {field} <color:#EFEFEF><&media-record></color> language: ENUM(en, ru, ka, me, sv) 
  {field} <color:#EFEFEF><&media-record></color> properties: JSONB 
  {field} <color:#EFEFEF><&media-record></color> createdBy: NUMBER 
  {field} <color:#EFEFEF><&media-record></color> status: ENUM(ACTIVE, INACTIVE, DELETED, PENDING, REJECTED, HIDDEN) 
  {field} <color:#EFEFEF><&media-record></color> createdAt: TIMESTAMP WITHOUT TIME ZONE(6) 
  {field} <color:#EFEFEF><&media-record></color> updatedAt: TIMESTAMP WITHOUT TIME ZONE(6) 
}

entity "<b>Seed</b>\n<font size=10 color=gray>(seeds)</font>" as seeds {
  {field} <b><color:DarkGoldenRod><&key></color> id</b>: INTEGER 
  {field} <color:#EFEFEF><&media-record></color> name: CHARACTER VARYING(128) 
  {field} <color:#EFEFEF><&media-record></color> timestamp: TIMESTAMP WITHOUT TIME ZONE(6) 
}
@enduml

PlantUML version 1.2022.7beta2(Unknown compile time)
(GPL source distribution)
Java Runtime: Java(TM) SE Runtime Environment
JVM: Java HotSpot(TM) 64-Bit Server VM
Default Encoding: UTF-8
Language: en
Country: US
--></g></svg>