<?xml version="1.0" encoding="UTF-8" standalone="no"?><svg xmlns="http://www.w3.org/2000/svg" xmlns:xlink="http://www.w3.org/1999/xlink" contentStyleType="text/css" height="410px" preserveAspectRatio="none" style="width:786px;height:410px;background:#FFFFFF;" version="1.1" viewBox="0 0 786 410" width="786px" zoomAndPan="magnify"><defs/><g><!--MD5=[cf3e15eab2b107082b592583faaf73e9]
class translations--><g id="elem_translations"><rect codeLine="25" fill="#FFFFFF" height="176.3125" id="translations" rx="2.5" ry="2.5" style="stroke:#2E8B57;stroke-width:0.5;" width="367.3333" x="7" y="227"/><text fill="#000000" font-family="sans-serif" font-size="14" font-weight="bold" lengthAdjust="spacing" textLength="79" x="151.1667" y="244.9951">Translate</text><text fill="#808080" font-family="sans-serif" font-size="10" lengthAdjust="spacing" textLength="71" x="155.1667" y="257.5791">(translations)</text><line style="stroke:#2E8B57;stroke-width:0.5;" x1="8" x2="373.3333" y1="264.9375" y2="264.9375"/><path d="M17.5,272.401 C15.5633,272.401 14,273.9644 14,275.901 C14,277.8377 15.5633,279.401 17.5,279.401 C19.4367,279.401 21,277.8377 21,275.901 C21,273.9644 19.4367,272.401 17.5,272.401 " fill="#EFEFEF" style="stroke:;stroke-width:0.0;stroke-dasharray:;"/><text fill="#000000" font-family="sans-serif" font-size="14" lengthAdjust="spacing" textLength="336" x="28.3333" y="281.9326">createdAt: TIMESTAMP WITHOUT TIME ZONE(6)</text><path d="M17.5,288.6979 C15.5633,288.6979 14,290.2613 14,292.1979 C14,294.1346 15.5633,295.6979 17.5,295.6979 C19.4367,295.6979 21,294.1346 21,292.1979 C21,290.2613 19.4367,288.6979 17.5,288.6979 " fill="#EFEFEF" style="stroke:;stroke-width:0.0;stroke-dasharray:;"/><text fill="#000000" font-family="sans-serif" font-size="14" lengthAdjust="spacing" textLength="340" x="28.3333" y="298.2295">updatedAt: TIMESTAMP WITHOUT TIME ZONE(6)</text><path d="M20.4167,304.9948 C18.8067,304.9948 17.5,306.3015 17.5,307.9115 C17.5,308.0981 17.5,308.2848 17.535,308.4598 L14,311.9948 L14,314.3281 L17.5,314.3281 L17.5,311.9948 L19.8333,311.9948 L19.8333,310.8281 L19.8683,310.7931 C20.0433,310.8281 20.23,310.8281 20.4167,310.8281 C22.0267,310.8281 23.3333,309.5215 23.3333,307.9115 C23.3333,306.3015 22.0267,304.9948 20.4167,304.9948 M21,306.1615 C21.6417,306.1615 22.1667,306.6865 22.1667,307.3281 C22.1667,307.9698 21.6417,308.4948 21,308.4948 C20.3583,308.4948 19.8333,307.9698 19.8333,307.3281 C19.8333,306.6865 20.3583,306.1615 21,306.1615 " fill="#B8860B" style="stroke:;stroke-width:0.0;stroke-dasharray:;"/><text fill="#000000" font-family="sans-serif" font-size="14" font-weight="bold" lengthAdjust="spacing" textLength="15" x="29.3333" y="314.5264">id</text><text fill="#000000" font-family="sans-serif" font-size="14" lengthAdjust="spacing" textLength="71" x="44.3333" y="314.5264">: INTEGER</text><path d="M17.5,321.2917 C15.5633,321.2917 14,322.855 14,324.7917 C14,326.7283 15.5633,328.2917 17.5,328.2917 C19.4367,328.2917 21,326.7283 21,324.7917 C21,322.855 19.4367,321.2917 17.5,321.2917 " fill="#EFEFEF" style="stroke:;stroke-width:0.0;stroke-dasharray:;"/><text fill="#000000" font-family="sans-serif" font-size="14" lengthAdjust="spacing" textLength="71" x="28.3333" y="330.8232">uuid: UUID</text><path d="M17.5,337.5885 C15.5633,337.5885 14,339.1519 14,341.0885 C14,343.0252 15.5633,344.5885 17.5,344.5885 C19.4367,344.5885 21,343.0252 21,341.0885 C21,339.1519 19.4367,337.5885 17.5,337.5885 " fill="#EFEFEF" style="stroke:;stroke-width:0.0;stroke-dasharray:;"/><text fill="#000000" font-family="sans-serif" font-size="14" lengthAdjust="spacing" textLength="83" x="28.3333" y="347.1201">value: TEXT</text><path d="M17.5,353.8854 C15.5633,353.8854 14,355.4488 14,357.3854 C14,359.3221 15.5633,360.8854 17.5,360.8854 C19.4367,360.8854 21,359.3221 21,357.3854 C21,355.4488 19.4367,353.8854 17.5,353.8854 " fill="#EFEFEF" style="stroke:;stroke-width:0.0;stroke-dasharray:;"/><text fill="#000000" font-family="sans-serif" font-size="14" lengthAdjust="spacing" textLength="128" x="28.3333" y="363.417">description: TEXT</text><path d="M17.5,370.1823 C15.5633,370.1823 14,371.7456 14,373.6823 C14,375.619 15.5633,377.1823 17.5,377.1823 C19.4367,377.1823 21,375.619 21,373.6823 C21,371.7456 19.4367,370.1823 17.5,370.1823 " fill="#EFEFEF" style="stroke:;stroke-width:0.0;stroke-dasharray:;"/><text fill="#000000" font-family="sans-serif" font-size="14" lengthAdjust="spacing" textLength="242" x="28.3333" y="379.7139">language: ENUM(en, ru, ka, me, sv)</text><path d="M20.4167,386.4792 C18.8067,386.4792 17.5,387.7858 17.5,389.3958 C17.5,389.5825 17.5,389.7692 17.535,389.9442 L14,393.4792 L14,395.8125 L17.5,395.8125 L17.5,393.4792 L19.8333,393.4792 L19.8333,392.3125 L19.8683,392.2775 C20.0433,392.3125 20.23,392.3125 20.4167,392.3125 C22.0267,392.3125 23.3333,391.0058 23.3333,389.3958 C23.3333,387.7858 22.0267,386.4792 20.4167,386.4792 M21,387.6458 C21.6417,387.6458 22.1667,388.1708 22.1667,388.8125 C22.1667,389.4542 21.6417,389.9792 21,389.9792 C20.3583,389.9792 19.8333,389.4542 19.8333,388.8125 C19.8333,388.1708 20.3583,387.6458 21,387.6458 " fill="#AAAAAA" style="stroke:;stroke-width:0.0;stroke-dasharray:;"/><text fill="#000000" font-family="sans-serif" font-size="14" lengthAdjust="spacing" textLength="194" x="28.3333" y="396.0107">dictionaryId: INTEGER «FK»</text></g><!--MD5=[f1ccb7e418b0cbbebecdad8dd55cdaba]
class dictionary--><g id="elem_dictionary"><rect codeLine="36" fill="#FFFFFF" height="160.0156" id="dictionary" rx="2.5" ry="2.5" style="stroke:#2E8B57;stroke-width:0.5;" width="367.3333" x="7" y="7"/><text fill="#000000" font-family="sans-serif" font-size="14" font-weight="bold" lengthAdjust="spacing" textLength="84" x="148.6667" y="24.9951">Dictionary</text><text fill="#808080" font-family="sans-serif" font-size="10" lengthAdjust="spacing" textLength="62" x="159.6667" y="37.5791">(dictionary)</text><line style="stroke:#2E8B57;stroke-width:0.5;" x1="8" x2="373.3333" y1="44.9375" y2="44.9375"/><path d="M17.5,52.401 C15.5633,52.401 14,53.9644 14,55.901 C14,57.8377 15.5633,59.401 17.5,59.401 C19.4367,59.401 21,57.8377 21,55.901 C21,53.9644 19.4367,52.401 17.5,52.401 " fill="#EFEFEF" style="stroke:;stroke-width:0.0;stroke-dasharray:;"/><text fill="#000000" font-family="sans-serif" font-size="14" lengthAdjust="spacing" textLength="336" x="28.3333" y="61.9326">createdAt: TIMESTAMP WITHOUT TIME ZONE(6)</text><path d="M17.5,68.6979 C15.5633,68.6979 14,70.2612 14,72.1979 C14,74.1346 15.5633,75.6979 17.5,75.6979 C19.4367,75.6979 21,74.1346 21,72.1979 C21,70.2612 19.4367,68.6979 17.5,68.6979 " fill="#EFEFEF" style="stroke:;stroke-width:0.0;stroke-dasharray:;"/><text fill="#000000" font-family="sans-serif" font-size="14" lengthAdjust="spacing" textLength="340" x="28.3333" y="78.2295">updatedAt: TIMESTAMP WITHOUT TIME ZONE(6)</text><path d="M20.4167,84.9948 C18.8067,84.9948 17.5,86.3015 17.5,87.9115 C17.5,88.0981 17.5,88.2848 17.535,88.4598 L14,91.9948 L14,94.3281 L17.5,94.3281 L17.5,91.9948 L19.8333,91.9948 L19.8333,90.8281 L19.8683,90.7931 C20.0433,90.8281 20.23,90.8281 20.4167,90.8281 C22.0267,90.8281 23.3333,89.5215 23.3333,87.9115 C23.3333,86.3015 22.0267,84.9948 20.4167,84.9948 M21,86.1615 C21.6417,86.1615 22.1667,86.6865 22.1667,87.3281 C22.1667,87.9698 21.6417,88.4948 21,88.4948 C20.3583,88.4948 19.8333,87.9698 19.8333,87.3281 C19.8333,86.6865 20.3583,86.1615 21,86.1615 " fill="#B8860B" style="stroke:;stroke-width:0.0;stroke-dasharray:;"/><text fill="#000000" font-family="sans-serif" font-size="14" font-weight="bold" lengthAdjust="spacing" textLength="15" x="29.3333" y="94.5264">id</text><text fill="#000000" font-family="sans-serif" font-size="14" lengthAdjust="spacing" textLength="71" x="44.3333" y="94.5264">: INTEGER</text><path d="M17.5,101.2917 C15.5633,101.2917 14,102.855 14,104.7917 C14,106.7283 15.5633,108.2917 17.5,108.2917 C19.4367,108.2917 21,106.7283 21,104.7917 C21,102.855 19.4367,101.2917 17.5,101.2917 " fill="#EFEFEF" style="stroke:;stroke-width:0.0;stroke-dasharray:;"/><text fill="#000000" font-family="sans-serif" font-size="14" lengthAdjust="spacing" textLength="71" x="28.3333" y="110.8232">uuid: UUID</text><path d="M17.5,117.5885 C15.5633,117.5885 14,119.1519 14,121.0885 C14,123.0252 15.5633,124.5885 17.5,124.5885 C19.4367,124.5885 21,123.0252 21,121.0885 C21,119.1519 19.4367,117.5885 17.5,117.5885 " fill="#EFEFEF" style="stroke:;stroke-width:0.0;stroke-dasharray:;"/><text fill="#000000" font-family="sans-serif" font-size="14" lengthAdjust="spacing" textLength="83" x="28.3333" y="127.1201">value: TEXT</text><path d="M17.5,133.8854 C15.5633,133.8854 14,135.4488 14,137.3854 C14,139.3221 15.5633,140.8854 17.5,140.8854 C19.4367,140.8854 21,139.3221 21,137.3854 C21,135.4488 19.4367,133.8854 17.5,133.8854 " fill="#EFEFEF" style="stroke:;stroke-width:0.0;stroke-dasharray:;"/><text fill="#000000" font-family="sans-serif" font-size="14" lengthAdjust="spacing" textLength="128" x="28.3333" y="143.417">description: TEXT</text><path d="M17.5,150.1823 C15.5633,150.1823 14,151.7456 14,153.6823 C14,155.619 15.5633,157.1823 17.5,157.1823 C19.4367,157.1823 21,155.619 21,153.6823 C21,151.7456 19.4367,150.1823 17.5,150.1823 " fill="#EFEFEF" style="stroke:;stroke-width:0.0;stroke-dasharray:;"/><text fill="#000000" font-family="sans-serif" font-size="14" lengthAdjust="spacing" textLength="242" x="28.3333" y="159.7139">language: ENUM(en, ru, ka, me, sv)</text></g><!--MD5=[fc7712e86a2fca108b2e3bb7a7f739b4]
class seeds--><g id="elem_seeds"><rect codeLine="46" fill="#FFFFFF" height="94.8281" id="seeds" rx="2.5" ry="2.5" style="stroke:#2E8B57;stroke-width:0.5;" width="370.3333" x="409.5" y="39.5"/><text fill="#000000" font-family="sans-serif" font-size="14" font-weight="bold" lengthAdjust="spacing" textLength="38" x="575.6667" y="57.4951">Seed</text><text fill="#808080" font-family="sans-serif" font-size="10" lengthAdjust="spacing" textLength="39" x="575.1667" y="70.0791">(seeds)</text><line style="stroke:#2E8B57;stroke-width:0.5;" x1="410.5" x2="778.8333" y1="77.4375" y2="77.4375"/><path d="M422.9167,84.901 C421.3067,84.901 420,86.2077 420,87.8177 C420,88.0044 420,88.191 420.035,88.366 L416.5,91.901 L416.5,94.2344 L420,94.2344 L420,91.901 L422.3333,91.901 L422.3333,90.7344 L422.3683,90.6994 C422.5433,90.7344 422.73,90.7344 422.9167,90.7344 C424.5267,90.7344 425.8333,89.4277 425.8333,87.8177 C425.8333,86.2077 424.5267,84.901 422.9167,84.901 M423.5,86.0677 C424.1417,86.0677 424.6667,86.5927 424.6667,87.2344 C424.6667,87.876 424.1417,88.401 423.5,88.401 C422.8583,88.401 422.3333,87.876 422.3333,87.2344 C422.3333,86.5927 422.8583,86.0677 423.5,86.0677 " fill="#B8860B" style="stroke:;stroke-width:0.0;stroke-dasharray:;"/><text fill="#000000" font-family="sans-serif" font-size="14" font-weight="bold" lengthAdjust="spacing" textLength="15" x="431.8333" y="94.4326">id</text><text fill="#000000" font-family="sans-serif" font-size="14" lengthAdjust="spacing" textLength="71" x="446.8333" y="94.4326">: INTEGER</text><path d="M420,101.1979 C418.0633,101.1979 416.5,102.7612 416.5,104.6979 C416.5,106.6346 418.0633,108.1979 420,108.1979 C421.9367,108.1979 423.5,106.6346 423.5,104.6979 C423.5,102.7612 421.9367,101.1979 420,101.1979 " fill="#EFEFEF" style="stroke:;stroke-width:0.0;stroke-dasharray:;"/><text fill="#000000" font-family="sans-serif" font-size="14" lengthAdjust="spacing" textLength="240" x="430.8333" y="110.7295">name: CHARACTER VARYING(128)</text><path d="M420,117.4948 C418.0633,117.4948 416.5,119.0581 416.5,120.9948 C416.5,122.9315 418.0633,124.4948 420,124.4948 C421.9367,124.4948 423.5,122.9315 423.5,120.9948 C423.5,119.0581 421.9367,117.4948 420,117.4948 " fill="#EFEFEF" style="stroke:;stroke-width:0.0;stroke-dasharray:;"/><text fill="#000000" font-family="sans-serif" font-size="14" lengthAdjust="spacing" textLength="343" x="430.8333" y="127.0264">timestamp: TIMESTAMP WITHOUT TIME ZONE(6)</text></g><!--MD5=[1c6a95a605a69b416fe87f1d07d72577]
link dictionary to translations--><g id="link_dictionary_translations"><path codeLine="52" d="M190.5,175.064 C190.5,175.064 190.5,218.972 190.5,218.972 " fill="none" id="dictionary-translations" style="stroke:#2E8B57;stroke-width:1.0;"/><line style="stroke:#2E8B57;stroke-width:1.0;" x1="190.5" x2="196.5" y1="218.972" y2="226.972"/><line style="stroke:#2E8B57;stroke-width:1.0;" x1="190.5" x2="184.5" y1="218.972" y2="226.972"/><line style="stroke:#2E8B57;stroke-width:1.0;" x1="190.5" x2="190.5" y1="218.972" y2="226.972"/><ellipse cx="190.5" cy="212.972" fill="none" rx="4" ry="4" style="stroke:#2E8B57;stroke-width:1.0;"/><line style="stroke:#2E8B57;stroke-width:1.0;" x1="186.5" x2="194.5" y1="171.064" y2="171.064"/><line style="stroke:#2E8B57;stroke-width:1.0;" x1="186.5" x2="194.5" y1="174.064" y2="174.064"/><line style="stroke:#2E8B57;stroke-width:1.0;" x1="190.5" x2="190.5" y1="175.064" y2="167.064"/></g><!--MD5=[d0bf72c093d2d7a09f82d32728c7c952]
@startuml
!define table(ename, dbname) entity "<b>ename</b>\n<font size=10 color=gray>(dbname)</font>"

!define pkey(x) {field} <b><color:DarkGoldenRod><&key></color> x</b>
!define fkey(x) {field} <color:#AAAAAA><&key></color> x
!define column(x) {field} <color:#EFEFEF><&media-record></color> x

hide stereotypes
hide methods
hide circle

top to bottom direction

skinparam roundcorner 5
skinparam linetype ortho
skinparam shadowing false
skinparam handwritten false

skinparam class {
    BackgroundColor white
    ArrowColor seagreen
    BorderColor seagreen
}


table( Translate, translations ) as translations {
  column( createdAt ): TIMESTAMP WITHOUT TIME ZONE(6) 
  column( updatedAt ): TIMESTAMP WITHOUT TIME ZONE(6) 
  pkey( id ): INTEGER 
  column( uuid ): UUID 
  column( value ): TEXT 
  column( description ): TEXT 
  column( language ): ENUM(en, ru, ka, me, sv) 
  fkey( dictionaryId ): INTEGER <<FK>>
}

table( Dictionary, dictionary ) as dictionary {
  column( createdAt ): TIMESTAMP WITHOUT TIME ZONE(6) 
  column( updatedAt ): TIMESTAMP WITHOUT TIME ZONE(6) 
  pkey( id ): INTEGER 
  column( uuid ): UUID 
  column( value ): TEXT 
  column( description ): TEXT 
  column( language ): ENUM(en, ru, ka, me, sv) 
}

table( Seed, seeds ) as seeds {
  pkey( id ): INTEGER 
  column( name ): CHARACTER VARYING(128) 
  column( timestamp ): TIMESTAMP WITHOUT TIME ZONE(6) 
}

"dictionary" ||- -o{ "translations"
@enduml

@startuml


hide stereotypes
hide methods
hide circle

top to bottom direction

skinparam roundcorner 5
skinparam linetype ortho
skinparam shadowing false
skinparam handwritten false

skinparam class {
    BackgroundColor white
    ArrowColor seagreen
    BorderColor seagreen
}


entity "<b>Translate</b>\n<font size=10 color=gray>(translations)</font>" as translations {
  {field} <color:#EFEFEF><&media-record></color> createdAt: TIMESTAMP WITHOUT TIME ZONE(6) 
  {field} <color:#EFEFEF><&media-record></color> updatedAt: TIMESTAMP WITHOUT TIME ZONE(6) 
  {field} <b><color:DarkGoldenRod><&key></color> id</b>: INTEGER 
  {field} <color:#EFEFEF><&media-record></color> uuid: UUID 
  {field} <color:#EFEFEF><&media-record></color> value: TEXT 
  {field} <color:#EFEFEF><&media-record></color> description: TEXT 
  {field} <color:#EFEFEF><&media-record></color> language: ENUM(en, ru, ka, me, sv) 
  {field} <color:#AAAAAA><&key></color> dictionaryId: INTEGER <<FK>>
}

entity "<b>Dictionary</b>\n<font size=10 color=gray>(dictionary)</font>" as dictionary {
  {field} <color:#EFEFEF><&media-record></color> createdAt: TIMESTAMP WITHOUT TIME ZONE(6) 
  {field} <color:#EFEFEF><&media-record></color> updatedAt: TIMESTAMP WITHOUT TIME ZONE(6) 
  {field} <b><color:DarkGoldenRod><&key></color> id</b>: INTEGER 
  {field} <color:#EFEFEF><&media-record></color> uuid: UUID 
  {field} <color:#EFEFEF><&media-record></color> value: TEXT 
  {field} <color:#EFEFEF><&media-record></color> description: TEXT 
  {field} <color:#EFEFEF><&media-record></color> language: ENUM(en, ru, ka, me, sv) 
}

entity "<b>Seed</b>\n<font size=10 color=gray>(seeds)</font>" as seeds {
  {field} <b><color:DarkGoldenRod><&key></color> id</b>: INTEGER 
  {field} <color:#EFEFEF><&media-record></color> name: CHARACTER VARYING(128) 
  {field} <color:#EFEFEF><&media-record></color> timestamp: TIMESTAMP WITHOUT TIME ZONE(6) 
}

"dictionary" ||- -o{ "translations"
@enduml

PlantUML version 1.2022.7beta2(Unknown compile time)
(GPL source distribution)
Java Runtime: Java(TM) SE Runtime Environment
JVM: Java HotSpot(TM) 64-Bit Server VM
Default Encoding: UTF-8
Language: en
Country: US
--></g></svg>