<?xml version="1.0" encoding="UTF-8" standalone="no"?><svg xmlns="http://www.w3.org/2000/svg" xmlns:xlink="http://www.w3.org/1999/xlink" contentStyleType="text/css" height="459px" preserveAspectRatio="none" style="width:1047px;height:459px;background:#FFFFFF;" version="1.1" viewBox="0 0 1047 459" width="1047px" zoomAndPan="magnify"><defs/><g><!--MD5=[ae8a780539e8e4f6ca9eb1ec2bb319fc]
class activity--><g id="elem_activity"><rect codeLine="25" fill="#FFFFFF" height="127.4219" id="activity" rx="2.5" ry="2.5" style="stroke:#2E8B57;stroke-width:0.5;" width="363.3333" x="97.5" y="40"/><text fill="#000000" font-family="sans-serif" font-size="14" font-weight="bold" lengthAdjust="spacing" textLength="64" x="247.1667" y="57.9951">Activity</text><text fill="#808080" font-family="sans-serif" font-size="10" lengthAdjust="spacing" textLength="47" x="255.6667" y="70.5791">(activity)</text><line style="stroke:#2E8B57;stroke-width:0.5;" x1="98.5" x2="459.8333" y1="77.9375" y2="77.9375"/><path d="M110.9167,85.401 C109.3067,85.401 108,86.7077 108,88.3177 C108,88.5044 108,88.691 108.035,88.866 L104.5,92.401 L104.5,94.7344 L108,94.7344 L108,92.401 L110.3333,92.401 L110.3333,91.2344 L110.3683,91.1994 C110.5433,91.2344 110.73,91.2344 110.9167,91.2344 C112.5267,91.2344 113.8333,89.9277 113.8333,88.3177 C113.8333,86.7077 112.5267,85.401 110.9167,85.401 M111.5,86.5677 C112.1417,86.5677 112.6667,87.0927 112.6667,87.7344 C112.6667,88.376 112.1417,88.901 111.5,88.901 C110.8583,88.901 110.3333,88.376 110.3333,87.7344 C110.3333,87.0927 110.8583,86.5677 111.5,86.5677 " fill="#B8860B" style="stroke:;stroke-width:0.0;stroke-dasharray:;"/><text fill="#000000" font-family="sans-serif" font-size="14" font-weight="bold" lengthAdjust="spacing" textLength="15" x="119.8333" y="94.9326">id</text><text fill="#000000" font-family="sans-serif" font-size="14" lengthAdjust="spacing" textLength="71" x="134.8333" y="94.9326">: INTEGER</text><path d="M108,101.6979 C106.0633,101.6979 104.5,103.2612 104.5,105.1979 C104.5,107.1346 106.0633,108.6979 108,108.6979 C109.9367,108.6979 111.5,107.1346 111.5,105.1979 C111.5,103.2612 109.9367,101.6979 108,101.6979 " fill="#EFEFEF" style="stroke:;stroke-width:0.0;stroke-dasharray:;"/><text fill="#000000" font-family="sans-serif" font-size="14" lengthAdjust="spacing" textLength="292" x="118.8333" y="111.2295">action: ENUM(created, updated, deleted)</text><path d="M108,117.9948 C106.0633,117.9948 104.5,119.5581 104.5,121.4948 C104.5,123.4315 106.0633,124.9948 108,124.9948 C109.9367,124.9948 111.5,123.4315 111.5,121.4948 C111.5,119.5581 109.9367,117.9948 108,117.9948 " fill="#EFEFEF" style="stroke:;stroke-width:0.0;stroke-dasharray:;"/><text fill="#000000" font-family="sans-serif" font-size="14" lengthAdjust="spacing" textLength="251" x="118.8333" y="127.5264">type: ENUM(dictionary, translation)</text><path d="M108,134.2917 C106.0633,134.2917 104.5,135.855 104.5,137.7917 C104.5,139.7283 106.0633,141.2917 108,141.2917 C109.9367,141.2917 111.5,139.7283 111.5,137.7917 C111.5,135.855 109.9367,134.2917 108,134.2917 " fill="#EFEFEF" style="stroke:;stroke-width:0.0;stroke-dasharray:;"/><text fill="#000000" font-family="sans-serif" font-size="14" lengthAdjust="spacing" textLength="130" x="118.8333" y="143.8232">properties: JSONB</text><path d="M108,150.5885 C106.0633,150.5885 104.5,152.1519 104.5,154.0885 C104.5,156.0252 106.0633,157.5885 108,157.5885 C109.9367,157.5885 111.5,156.0252 111.5,154.0885 C111.5,152.1519 109.9367,150.5885 108,150.5885 " fill="#EFEFEF" style="stroke:;stroke-width:0.0;stroke-dasharray:;"/><text fill="#000000" font-family="sans-serif" font-size="14" lengthAdjust="spacing" textLength="336" x="118.8333" y="160.1201">createdAt: TIMESTAMP WITHOUT TIME ZONE(6)</text></g><!--MD5=[cf3e15eab2b107082b592583faaf73e9]
class translations--><g id="elem_translations"><rect codeLine="33" fill="#FFFFFF" height="192.6094" id="translations" rx="2.5" ry="2.5" style="stroke:#2E8B57;stroke-width:0.5;" width="544.3333" x="496" y="7"/><text fill="#000000" font-family="sans-serif" font-size="14" font-weight="bold" lengthAdjust="spacing" textLength="95" x="720.6667" y="24.9951">Translation</text><text fill="#808080" font-family="sans-serif" font-size="10" lengthAdjust="spacing" textLength="71" x="732.6667" y="37.5791">(translations)</text><line style="stroke:#2E8B57;stroke-width:0.5;" x1="497" x2="1039.3333" y1="44.9375" y2="44.9375"/><path d="M509.4167,52.401 C507.8067,52.401 506.5,53.7077 506.5,55.3177 C506.5,55.5044 506.5,55.691 506.535,55.866 L503,59.401 L503,61.7344 L506.5,61.7344 L506.5,59.401 L508.8333,59.401 L508.8333,58.2344 L508.8683,58.1994 C509.0433,58.2344 509.23,58.2344 509.4167,58.2344 C511.0267,58.2344 512.3333,56.9277 512.3333,55.3177 C512.3333,53.7077 511.0267,52.401 509.4167,52.401 M510,53.5677 C510.6417,53.5677 511.1667,54.0927 511.1667,54.7344 C511.1667,55.376 510.6417,55.901 510,55.901 C509.3583,55.901 508.8333,55.376 508.8333,54.7344 C508.8333,54.0927 509.3583,53.5677 510,53.5677 " fill="#B8860B" style="stroke:;stroke-width:0.0;stroke-dasharray:;"/><text fill="#000000" font-family="sans-serif" font-size="14" font-weight="bold" lengthAdjust="spacing" textLength="15" x="518.3333" y="61.9326">id</text><text fill="#000000" font-family="sans-serif" font-size="14" lengthAdjust="spacing" textLength="71" x="533.3333" y="61.9326">: INTEGER</text><path d="M506.5,68.6979 C504.5633,68.6979 503,70.2612 503,72.1979 C503,74.1346 504.5633,75.6979 506.5,75.6979 C508.4367,75.6979 510,74.1346 510,72.1979 C510,70.2612 508.4367,68.6979 506.5,68.6979 " fill="#EFEFEF" style="stroke:;stroke-width:0.0;stroke-dasharray:;"/><text fill="#000000" font-family="sans-serif" font-size="14" lengthAdjust="spacing" textLength="83" x="517.3333" y="78.2295">value: TEXT</text><path d="M506.5,84.9948 C504.5633,84.9948 503,86.5581 503,88.4948 C503,90.4315 504.5633,91.9948 506.5,91.9948 C508.4367,91.9948 510,90.4315 510,88.4948 C510,86.5581 508.4367,84.9948 506.5,84.9948 " fill="#EFEFEF" style="stroke:;stroke-width:0.0;stroke-dasharray:;"/><text fill="#000000" font-family="sans-serif" font-size="14" lengthAdjust="spacing" textLength="128" x="517.3333" y="94.5264">description: TEXT</text><path d="M506.5,101.2917 C504.5633,101.2917 503,102.855 503,104.7917 C503,106.7283 504.5633,108.2917 506.5,108.2917 C508.4367,108.2917 510,106.7283 510,104.7917 C510,102.855 508.4367,101.2917 506.5,101.2917 " fill="#EFEFEF" style="stroke:;stroke-width:0.0;stroke-dasharray:;"/><text fill="#000000" font-family="sans-serif" font-size="14" lengthAdjust="spacing" textLength="242" x="517.3333" y="110.8232">language: ENUM(en, ru, ka, me, sv)</text><path d="M506.5,117.5885 C504.5633,117.5885 503,119.1519 503,121.0885 C503,123.0252 504.5633,124.5885 506.5,124.5885 C508.4367,124.5885 510,123.0252 510,121.0885 C510,119.1519 508.4367,117.5885 506.5,117.5885 " fill="#EFEFEF" style="stroke:;stroke-width:0.0;stroke-dasharray:;"/><text fill="#000000" font-family="sans-serif" font-size="14" lengthAdjust="spacing" textLength="130" x="517.3333" y="127.1201">properties: JSONB</text><path d="M506.5,133.8854 C504.5633,133.8854 503,135.4488 503,137.3854 C503,139.3221 504.5633,140.8854 506.5,140.8854 C508.4367,140.8854 510,139.3221 510,137.3854 C510,135.4488 508.4367,133.8854 506.5,133.8854 " fill="#EFEFEF" style="stroke:;stroke-width:0.0;stroke-dasharray:;"/><text fill="#000000" font-family="sans-serif" font-size="14" lengthAdjust="spacing" textLength="145" x="517.3333" y="143.417">createdBy: INTEGER</text><path d="M506.5,150.1823 C504.5633,150.1823 503,151.7456 503,153.6823 C503,155.619 504.5633,157.1823 506.5,157.1823 C508.4367,157.1823 510,155.619 510,153.6823 C510,151.7456 508.4367,150.1823 506.5,150.1823 " fill="#EFEFEF" style="stroke:;stroke-width:0.0;stroke-dasharray:;"/><text fill="#000000" font-family="sans-serif" font-size="14" lengthAdjust="spacing" textLength="517" x="517.3333" y="159.7139">status: ENUM(ACTIVE, INACTIVE, DELETED, PENDING, REJECTED, HIDDEN)</text><path d="M506.5,166.4792 C504.5633,166.4792 503,168.0425 503,169.9792 C503,171.9158 504.5633,173.4792 506.5,173.4792 C508.4367,173.4792 510,171.9158 510,169.9792 C510,168.0425 508.4367,166.4792 506.5,166.4792 " fill="#EFEFEF" style="stroke:;stroke-width:0.0;stroke-dasharray:;"/><text fill="#000000" font-family="sans-serif" font-size="14" lengthAdjust="spacing" textLength="336" x="517.3333" y="176.0107">createdAt: TIMESTAMP WITHOUT TIME ZONE(6)</text><path d="M506.5,182.776 C504.5633,182.776 503,184.3394 503,186.276 C503,188.2127 504.5633,189.776 506.5,189.776 C508.4367,189.776 510,188.2127 510,186.276 C510,184.3394 508.4367,182.776 506.5,182.776 " fill="#EFEFEF" style="stroke:;stroke-width:0.0;stroke-dasharray:;"/><text fill="#000000" font-family="sans-serif" font-size="14" lengthAdjust="spacing" textLength="340" x="517.3333" y="192.3076">updatedAt: TIMESTAMP WITHOUT TIME ZONE(6)</text></g><!--MD5=[f1ccb7e418b0cbbebecdad8dd55cdaba]
class dictionary--><g id="elem_dictionary"><rect codeLine="45" fill="#FFFFFF" height="192.6094" id="dictionary" rx="2.5" ry="2.5" style="stroke:#2E8B57;stroke-width:0.5;" width="544.3333" x="7" y="260"/><text fill="#000000" font-family="sans-serif" font-size="14" font-weight="bold" lengthAdjust="spacing" textLength="84" x="237.1667" y="277.9951">Dictionary</text><text fill="#808080" font-family="sans-serif" font-size="10" lengthAdjust="spacing" textLength="62" x="248.1667" y="290.5791">(dictionary)</text><line style="stroke:#2E8B57;stroke-width:0.5;" x1="8" x2="550.3333" y1="297.9375" y2="297.9375"/><path d="M20.4167,305.401 C18.8067,305.401 17.5,306.7077 17.5,308.3177 C17.5,308.5044 17.5,308.691 17.535,308.866 L14,312.401 L14,314.7344 L17.5,314.7344 L17.5,312.401 L19.8333,312.401 L19.8333,311.2344 L19.8683,311.1994 C20.0433,311.2344 20.23,311.2344 20.4167,311.2344 C22.0267,311.2344 23.3333,309.9277 23.3333,308.3177 C23.3333,306.7077 22.0267,305.401 20.4167,305.401 M21,306.5677 C21.6417,306.5677 22.1667,307.0927 22.1667,307.7344 C22.1667,308.376 21.6417,308.901 21,308.901 C20.3583,308.901 19.8333,308.376 19.8333,307.7344 C19.8333,307.0927 20.3583,306.5677 21,306.5677 " fill="#B8860B" style="stroke:;stroke-width:0.0;stroke-dasharray:;"/><text fill="#000000" font-family="sans-serif" font-size="14" font-weight="bold" lengthAdjust="spacing" textLength="15" x="29.3333" y="314.9326">id</text><text fill="#000000" font-family="sans-serif" font-size="14" lengthAdjust="spacing" textLength="71" x="44.3333" y="314.9326">: INTEGER</text><path d="M17.5,321.6979 C15.5633,321.6979 14,323.2613 14,325.1979 C14,327.1346 15.5633,328.6979 17.5,328.6979 C19.4367,328.6979 21,327.1346 21,325.1979 C21,323.2613 19.4367,321.6979 17.5,321.6979 " fill="#EFEFEF" style="stroke:;stroke-width:0.0;stroke-dasharray:;"/><text fill="#000000" font-family="sans-serif" font-size="14" lengthAdjust="spacing" textLength="71" x="28.3333" y="331.2295">uuid: UUID</text><path d="M17.5,337.9948 C15.5633,337.9948 14,339.5581 14,341.4948 C14,343.4315 15.5633,344.9948 17.5,344.9948 C19.4367,344.9948 21,343.4315 21,341.4948 C21,339.5581 19.4367,337.9948 17.5,337.9948 " fill="#EFEFEF" style="stroke:;stroke-width:0.0;stroke-dasharray:;"/><text fill="#000000" font-family="sans-serif" font-size="14" lengthAdjust="spacing" textLength="238" x="28.3333" y="347.5264">value: CHARACTER VARYING(512)</text><path d="M17.5,354.2917 C15.5633,354.2917 14,355.855 14,357.7917 C14,359.7283 15.5633,361.2917 17.5,361.2917 C19.4367,361.2917 21,359.7283 21,357.7917 C21,355.855 19.4367,354.2917 17.5,354.2917 " fill="#EFEFEF" style="stroke:;stroke-width:0.0;stroke-dasharray:;"/><text fill="#000000" font-family="sans-serif" font-size="14" lengthAdjust="spacing" textLength="128" x="28.3333" y="363.8232">description: TEXT</text><path d="M17.5,370.5885 C15.5633,370.5885 14,372.1519 14,374.0885 C14,376.0252 15.5633,377.5885 17.5,377.5885 C19.4367,377.5885 21,376.0252 21,374.0885 C21,372.1519 19.4367,370.5885 17.5,370.5885 " fill="#EFEFEF" style="stroke:;stroke-width:0.0;stroke-dasharray:;"/><text fill="#000000" font-family="sans-serif" font-size="14" lengthAdjust="spacing" textLength="242" x="28.3333" y="380.1201">language: ENUM(en, ru, ka, me, sv)</text><path d="M17.5,386.8854 C15.5633,386.8854 14,388.4488 14,390.3854 C14,392.3221 15.5633,393.8854 17.5,393.8854 C19.4367,393.8854 21,392.3221 21,390.3854 C21,388.4488 19.4367,386.8854 17.5,386.8854 " fill="#EFEFEF" style="stroke:;stroke-width:0.0;stroke-dasharray:;"/><text fill="#000000" font-family="sans-serif" font-size="14" lengthAdjust="spacing" textLength="239" x="28.3333" y="396.417">source: CHARACTER VARYING(32)</text><path d="M17.5,403.1823 C15.5633,403.1823 14,404.7456 14,406.6823 C14,408.619 15.5633,410.1823 17.5,410.1823 C19.4367,410.1823 21,408.619 21,406.6823 C21,404.7456 19.4367,403.1823 17.5,403.1823 " fill="#EFEFEF" style="stroke:;stroke-width:0.0;stroke-dasharray:;"/><text fill="#000000" font-family="sans-serif" font-size="14" lengthAdjust="spacing" textLength="517" x="28.3333" y="412.7139">status: ENUM(ACTIVE, INACTIVE, DELETED, PENDING, REJECTED, HIDDEN)</text><path d="M17.5,419.4792 C15.5633,419.4792 14,421.0425 14,422.9792 C14,424.9158 15.5633,426.4792 17.5,426.4792 C19.4367,426.4792 21,424.9158 21,422.9792 C21,421.0425 19.4367,419.4792 17.5,419.4792 " fill="#EFEFEF" style="stroke:;stroke-width:0.0;stroke-dasharray:;"/><text fill="#000000" font-family="sans-serif" font-size="14" lengthAdjust="spacing" textLength="336" x="28.3333" y="429.0107">createdAt: TIMESTAMP WITHOUT TIME ZONE(6)</text><path d="M17.5,435.776 C15.5633,435.776 14,437.3394 14,439.276 C14,441.2127 15.5633,442.776 17.5,442.776 C19.4367,442.776 21,441.2127 21,439.276 C21,437.3394 19.4367,435.776 17.5,435.776 " fill="#EFEFEF" style="stroke:;stroke-width:0.0;stroke-dasharray:;"/><text fill="#000000" font-family="sans-serif" font-size="14" lengthAdjust="spacing" textLength="340" x="28.3333" y="445.3076">updatedAt: TIMESTAMP WITHOUT TIME ZONE(6)</text></g><!--MD5=[fc7712e86a2fca108b2e3bb7a7f739b4]
class seeds--><g id="elem_seeds"><rect codeLine="57" fill="#FFFFFF" height="94.8281" id="seeds" rx="2.5" ry="2.5" style="stroke:#2E8B57;stroke-width:0.5;" width="370.3333" x="586" y="309"/><text fill="#000000" font-family="sans-serif" font-size="14" font-weight="bold" lengthAdjust="spacing" textLength="38" x="752.1667" y="326.9951">Seed</text><text fill="#808080" font-family="sans-serif" font-size="10" lengthAdjust="spacing" textLength="39" x="751.6667" y="339.5791">(seeds)</text><line style="stroke:#2E8B57;stroke-width:0.5;" x1="587" x2="955.3333" y1="346.9375" y2="346.9375"/><path d="M599.4167,354.401 C597.8067,354.401 596.5,355.7077 596.5,357.3177 C596.5,357.5044 596.5,357.691 596.535,357.866 L593,361.401 L593,363.7344 L596.5,363.7344 L596.5,361.401 L598.8333,361.401 L598.8333,360.2344 L598.8683,360.1994 C599.0433,360.2344 599.23,360.2344 599.4167,360.2344 C601.0267,360.2344 602.3333,358.9277 602.3333,357.3177 C602.3333,355.7077 601.0267,354.401 599.4167,354.401 M600,355.5677 C600.6417,355.5677 601.1667,356.0927 601.1667,356.7344 C601.1667,357.376 600.6417,357.901 600,357.901 C599.3583,357.901 598.8333,357.376 598.8333,356.7344 C598.8333,356.0927 599.3583,355.5677 600,355.5677 " fill="#B8860B" style="stroke:;stroke-width:0.0;stroke-dasharray:;"/><text fill="#000000" font-family="sans-serif" font-size="14" font-weight="bold" lengthAdjust="spacing" textLength="15" x="608.3333" y="363.9326">id</text><text fill="#000000" font-family="sans-serif" font-size="14" lengthAdjust="spacing" textLength="71" x="623.3333" y="363.9326">: INTEGER</text><path d="M596.5,370.6979 C594.5633,370.6979 593,372.2613 593,374.1979 C593,376.1346 594.5633,377.6979 596.5,377.6979 C598.4367,377.6979 600,376.1346 600,374.1979 C600,372.2613 598.4367,370.6979 596.5,370.6979 " fill="#EFEFEF" style="stroke:;stroke-width:0.0;stroke-dasharray:;"/><text fill="#000000" font-family="sans-serif" font-size="14" lengthAdjust="spacing" textLength="240" x="607.3333" y="380.2295">name: CHARACTER VARYING(128)</text><path d="M596.5,386.9948 C594.5633,386.9948 593,388.5581 593,390.4948 C593,392.4315 594.5633,393.9948 596.5,393.9948 C598.4367,393.9948 600,392.4315 600,390.4948 C600,388.5581 598.4367,386.9948 596.5,386.9948 " fill="#EFEFEF" style="stroke:;stroke-width:0.0;stroke-dasharray:;"/><text fill="#000000" font-family="sans-serif" font-size="14" lengthAdjust="spacing" textLength="343" x="607.3333" y="396.5264">timestamp: TIMESTAMP WITHOUT TIME ZONE(6)</text></g><!--MD5=[e70ffa6735e9608e3672e56d2eb60890]
@startuml
!define table(ename, dbname) entity "<b>ename</b>\n<font size=10 color=gray>(dbname)</font>"

!define pkey(x) {field} <b><color:DarkGoldenRod><&key></color> x</b>
!define fkey(x) {field} <color:#AAAAAA><&key></color> x
!define column(x) {field} <color:#EFEFEF><&media-record></color> x

hide stereotypes
hide methods
hide circle

top to bottom direction

skinparam roundcorner 5
skinparam linetype ortho
skinparam shadowing false
skinparam handwritten false

skinparam class {
    BackgroundColor white
    ArrowColor seagreen
    BorderColor seagreen
}


table( Activity, activity ) as activity {
  pkey( id ): INTEGER 
  column( action ): ENUM(created, updated, deleted) 
  column( type ): ENUM(dictionary, translation) 
  column( properties ): JSONB 
  column( createdAt ): TIMESTAMP WITHOUT TIME ZONE(6) 
}

table( Translation, translations ) as translations {
  pkey( id ): INTEGER 
  column( value ): TEXT 
  column( description ): TEXT 
  column( language ): ENUM(en, ru, ka, me, sv) 
  column( properties ): JSONB 
  column( createdBy ): INTEGER 
  column( status ): ENUM(ACTIVE, INACTIVE, DELETED, PENDING, REJECTED, HIDDEN) 
  column( createdAt ): TIMESTAMP WITHOUT TIME ZONE(6) 
  column( updatedAt ): TIMESTAMP WITHOUT TIME ZONE(6) 
}

table( Dictionary, dictionary ) as dictionary {
  pkey( id ): INTEGER 
  column( uuid ): UUID 
  column( value ): CHARACTER VARYING(512) 
  column( description ): TEXT 
  column( language ): ENUM(en, ru, ka, me, sv) 
  column( source ): CHARACTER VARYING(32) 
  column( status ): ENUM(ACTIVE, INACTIVE, DELETED, PENDING, REJECTED, HIDDEN) 
  column( createdAt ): TIMESTAMP WITHOUT TIME ZONE(6) 
  column( updatedAt ): TIMESTAMP WITHOUT TIME ZONE(6) 
}

table( Seed, seeds ) as seeds {
  pkey( id ): INTEGER 
  column( name ): CHARACTER VARYING(128) 
  column( timestamp ): TIMESTAMP WITHOUT TIME ZONE(6) 
}
@enduml

@startuml


hide stereotypes
hide methods
hide circle

top to bottom direction

skinparam roundcorner 5
skinparam linetype ortho
skinparam shadowing false
skinparam handwritten false

skinparam class {
    BackgroundColor white
    ArrowColor seagreen
    BorderColor seagreen
}


entity "<b>Activity</b>\n<font size=10 color=gray>(activity)</font>" as activity {
  {field} <b><color:DarkGoldenRod><&key></color> id</b>: INTEGER 
  {field} <color:#EFEFEF><&media-record></color> action: ENUM(created, updated, deleted) 
  {field} <color:#EFEFEF><&media-record></color> type: ENUM(dictionary, translation) 
  {field} <color:#EFEFEF><&media-record></color> properties: JSONB 
  {field} <color:#EFEFEF><&media-record></color> createdAt: TIMESTAMP WITHOUT TIME ZONE(6) 
}

entity "<b>Translation</b>\n<font size=10 color=gray>(translations)</font>" as translations {
  {field} <b><color:DarkGoldenRod><&key></color> id</b>: INTEGER 
  {field} <color:#EFEFEF><&media-record></color> value: TEXT 
  {field} <color:#EFEFEF><&media-record></color> description: TEXT 
  {field} <color:#EFEFEF><&media-record></color> language: ENUM(en, ru, ka, me, sv) 
  {field} <color:#EFEFEF><&media-record></color> properties: JSONB 
  {field} <color:#EFEFEF><&media-record></color> createdBy: INTEGER 
  {field} <color:#EFEFEF><&media-record></color> status: ENUM(ACTIVE, INACTIVE, DELETED, PENDING, REJECTED, HIDDEN) 
  {field} <color:#EFEFEF><&media-record></color> createdAt: TIMESTAMP WITHOUT TIME ZONE(6) 
  {field} <color:#EFEFEF><&media-record></color> updatedAt: TIMESTAMP WITHOUT TIME ZONE(6) 
}

entity "<b>Dictionary</b>\n<font size=10 color=gray>(dictionary)</font>" as dictionary {
  {field} <b><color:DarkGoldenRod><&key></color> id</b>: INTEGER 
  {field} <color:#EFEFEF><&media-record></color> uuid: UUID 
  {field} <color:#EFEFEF><&media-record></color> value: CHARACTER VARYING(512) 
  {field} <color:#EFEFEF><&media-record></color> description: TEXT 
  {field} <color:#EFEFEF><&media-record></color> language: ENUM(en, ru, ka, me, sv) 
  {field} <color:#EFEFEF><&media-record></color> source: CHARACTER VARYING(32) 
  {field} <color:#EFEFEF><&media-record></color> status: ENUM(ACTIVE, INACTIVE, DELETED, PENDING, REJECTED, HIDDEN) 
  {field} <color:#EFEFEF><&media-record></color> createdAt: TIMESTAMP WITHOUT TIME ZONE(6) 
  {field} <color:#EFEFEF><&media-record></color> updatedAt: TIMESTAMP WITHOUT TIME ZONE(6) 
}

entity "<b>Seed</b>\n<font size=10 color=gray>(seeds)</font>" as seeds {
  {field} <b><color:DarkGoldenRod><&key></color> id</b>: INTEGER 
  {field} <color:#EFEFEF><&media-record></color> name: CHARACTER VARYING(128) 
  {field} <color:#EFEFEF><&media-record></color> timestamp: TIMESTAMP WITHOUT TIME ZONE(6) 
}
@enduml

PlantUML version 1.2022.7beta2(Unknown compile time)
(GPL source distribution)
Java Runtime: Java(TM) SE Runtime Environment
JVM: Java HotSpot(TM) 64-Bit Server VM
Default Encoding: UTF-8
Language: en
Country: US
--></g></svg>