<?xml version="1.0" encoding="UTF-8" standalone="no"?>
<!DOCTYPE svg PUBLIC "-//W3C//DTD SVG 1.1//EN"
 "http://www.w3.org/Graphics/SVG/1.1/DTD/svg11.dtd">
<!-- Generated by graphviz version 2.47.0 (20210316.0004)
 -->
<!-- Title: dependencies Pages: 1 -->
<svg width="504pt" height="211pt"
 viewBox="0.00 0.00 504.00 211.00" xmlns="http://www.w3.org/2000/svg" xmlns:xlink="http://www.w3.org/1999/xlink">
<g id="graph0" class="graph" transform="scale(1 1) rotate(0) translate(4 207)">
<title>dependencies</title>
<polygon fill="white" stroke="transparent" points="-4,4 -4,-207 500,-207 500,4 -4,4"/>
<text text-anchor="start" x="227.01" y="-42.4" font-family="Times-12" font-weight="bold" font-size="14.00">Legend</text>
<polygon fill="#ffffb3" stroke="transparent" points="14,-10 14,-30 34,-30 34,-10 14,-10"/>
<text text-anchor="start" x="37.63" y="-15.4" font-family="Times-12" font-size="14.00"> &#160;Declarations</text>
<polygon fill="#8dd3c7" stroke="transparent" points="127,-10 127,-30 147,-30 147,-10 127,-10"/>
<text text-anchor="start" x="150.73" y="-15.4" font-family="Times-12" font-size="14.00"> &#160;Module</text>
<polygon fill="#80b1d3" stroke="transparent" points="213,-10 213,-30 233,-30 233,-10 213,-10"/>
<text text-anchor="start" x="236.78" y="-15.4" font-family="Times-12" font-size="14.00"> &#160;Bootstrap</text>
<polygon fill="#fdb462" stroke="transparent" points="310,-10 310,-30 330,-30 330,-10 310,-10"/>
<text text-anchor="start" x="333.67" y="-15.4" font-family="Times-12" font-size="14.00"> &#160;Providers</text>
<polygon fill="#fb8072" stroke="transparent" points="406,-10 406,-30 426,-30 426,-10 406,-10"/>
<text text-anchor="start" x="429.73" y="-15.4" font-family="Times-12" font-size="14.00"> &#160;Exports</text>
<g id="clust1" class="cluster">
<title>cluster_TranslationModule</title>
<polygon fill="none" stroke="black" stroke-dasharray="1,5" points="14.5,-70 14.5,-195 481.5,-195 481.5,-70 14.5,-70"/>
</g>
<g id="clust3" class="cluster">
<title>cluster_TranslationModule_imports</title>
<polygon fill="none" stroke="black" points="214.5,-78 214.5,-130 473.5,-130 473.5,-78 214.5,-78"/>
</g>
<g id="clust6" class="cluster">
<title>cluster_TranslationModule_providers</title>
<polygon fill="none" stroke="black" points="22.5,-78 22.5,-130 206.5,-130 206.5,-78 22.5,-78"/>
</g>
<!-- ActivityModule -->
<g id="node1" class="node">
<title>ActivityModule</title>
<polygon fill="#8dd3c7" stroke="black" points="465.43,-122 462.43,-126 441.43,-126 438.43,-122 359.57,-122 359.57,-86 465.43,-86 465.43,-122"/>
<text text-anchor="middle" x="412.5" y="-99.8" font-family="Times,serif" font-size="14.00">ActivityModule</text>
</g>
<!-- TranslationModule -->
<g id="node3" class="node">
<title>TranslationModule</title>
<polygon fill="#8dd3c7" stroke="black" points="344.31,-187 341.31,-191 320.31,-191 317.31,-187 220.69,-187 220.69,-151 344.31,-151 344.31,-187"/>
<text text-anchor="middle" x="282.5" y="-164.8" font-family="Times,serif" font-size="14.00">TranslationModule</text>
</g>
<!-- ActivityModule&#45;&gt;TranslationModule -->
<g id="edge1" class="edge">
<title>ActivityModule&#45;&gt;TranslationModule</title>
<path fill="none" stroke="black" d="M412.5,-122.11C412.5,-141.34 412.5,-169 412.5,-169 412.5,-169 354.45,-169 354.45,-169"/>
<polygon fill="black" stroke="black" points="354.45,-165.5 344.45,-169 354.45,-172.5 354.45,-165.5"/>
</g>
<!-- DictionaryModule -->
<g id="node2" class="node">
<title>DictionaryModule</title>
<polygon fill="#8dd3c7" stroke="black" points="342.42,-122 339.42,-126 318.42,-126 315.42,-122 222.58,-122 222.58,-86 342.42,-86 342.42,-122"/>
<text text-anchor="middle" x="282.5" y="-99.8" font-family="Times,serif" font-size="14.00">DictionaryModule</text>
</g>
<!-- DictionaryModule&#45;&gt;TranslationModule -->
<g id="edge2" class="edge">
<title>DictionaryModule&#45;&gt;TranslationModule</title>
<path fill="none" stroke="black" d="M282.5,-122.11C282.5,-122.11 282.5,-140.99 282.5,-140.99"/>
<polygon fill="black" stroke="black" points="279,-140.99 282.5,-150.99 286,-140.99 279,-140.99"/>
</g>
<!-- TranslationService -->
<g id="node4" class="node">
<title>TranslationService</title>
<ellipse fill="#fdb462" stroke="black" cx="114.5" cy="-104" rx="83.94" ry="18"/>
<text text-anchor="middle" x="114.5" y="-99.8" font-family="Times,serif" font-size="14.00">TranslationService</text>
</g>
<!-- TranslationService&#45;&gt;TranslationModule -->
<g id="edge3" class="edge">
<title>TranslationService&#45;&gt;TranslationModule</title>
<path fill="none" stroke="black" d="M114.5,-122.11C114.5,-141.34 114.5,-169 114.5,-169 114.5,-169 210.42,-169 210.42,-169"/>
<polygon fill="black" stroke="black" points="210.42,-172.5 220.42,-169 210.42,-165.5 210.42,-172.5"/>
</g>
</g>
</svg>
